<svg width="128" height="33" viewBox="0 0 128 33" fill="none" xmlns="http://www.w3.org/2000/svg">
<g clip-path="url(#clip0_162_291)">
<path fill-rule="evenodd" clip-rule="evenodd" d="M55.208 4.62261C55.208 3.34496 54.2224 2.35936 52.9447 2.35936C51.6712 2.35936 50.6809 3.34496 50.6809 4.62261C50.6809 5.9 51.671 6.88586 52.9447 6.88586C54.2221 6.88586 55.208 5.90026 55.208 4.62261V4.62261ZM49.3591 4.62261C49.3591 2.63756 50.9061 1.13892 52.9447 1.13892C54.9823 1.13892 56.5298 2.63756 56.5298 4.62261C56.5298 6.60791 54.9825 8.1063 52.9447 8.1063C50.9061 8.1063 49.3594 6.60791 49.3594 4.62261H49.3591ZM62.6077 3.39355C62.6077 2.77053 62.2098 2.33689 61.4491 2.33689H60.282C60.2234 2.33696 60.1672 2.36027 60.1258 2.4017C60.0844 2.44313 60.0611 2.4993 60.061 2.55789V4.2164C60.061 4.3384 60.1603 4.43688 60.282 4.43688H61.4491C62.2098 4.43688 62.6077 4.04373 62.6077 3.39355ZM63.8851 3.40687C63.8851 4.62731 63.01 5.551 61.6482 5.551H60.282C60.2234 5.551 60.1672 5.57428 60.1257 5.61573C60.0843 5.65717 60.061 5.71338 60.061 5.772V7.79727C60.061 7.85574 60.0378 7.91182 59.9964 7.95317C59.9551 7.99451 59.899 8.01774 59.8405 8.01774H58.9646C58.9356 8.01778 58.9069 8.0121 58.8801 8.00104C58.8533 7.98998 58.829 7.97375 58.8085 7.95328C58.788 7.9328 58.7717 7.90849 58.7605 7.88172C58.7494 7.85495 58.7437 7.82626 58.7436 7.79727V1.44821C58.7436 1.32622 58.8424 1.22747 58.9646 1.22747H61.6482C63.0097 1.22747 63.8853 2.20445 63.8853 3.40687H63.8851ZM67.3369 2.62006V3.82692C67.3369 3.94891 67.4356 4.04791 67.5579 4.04791H69.5254C69.6471 4.04791 69.7464 4.14666 69.7464 4.26891V4.98545C69.7464 5.10718 69.6471 5.20644 69.5254 5.20644H67.5579C67.5289 5.20641 67.5002 5.21209 67.4734 5.22315C67.4466 5.23421 67.4222 5.25044 67.4017 5.27091C67.3812 5.29138 67.3649 5.3157 67.3538 5.34247C67.3427 5.36923 67.3369 5.39793 67.3369 5.42692V6.62542C67.3369 6.74767 67.4356 6.84615 67.5579 6.84615H69.8527C69.9745 6.84615 70.0737 6.94542 70.0737 7.06688V7.79701C70.0737 7.91926 69.9745 8.018 69.8527 8.018H66.2403C66.2113 8.01797 66.1826 8.01223 66.1558 8.0011C66.129 7.98998 66.1047 7.97369 66.0843 7.95317C66.0638 7.93265 66.0475 7.90829 66.0365 7.8815C66.0254 7.85471 66.0197 7.82599 66.0198 7.79701V1.44821C66.0198 1.32648 66.1185 1.22773 66.2403 1.22773H69.8527C69.9745 1.22773 70.0737 1.32648 70.0737 1.44821V2.17807C70.0737 2.30032 69.9745 2.39907 69.8527 2.39907H67.5579C67.4993 2.39907 67.4431 2.42235 67.4016 2.46379C67.3602 2.50524 67.3369 2.56145 67.3369 2.62006V2.62006ZM78.8655 1.44821V7.79701C78.8655 7.919 78.7662 8.018 78.6445 8.018H77.725C77.6918 8.01798 77.659 8.01045 77.6291 7.99597C77.5992 7.9815 77.5729 7.96045 77.5523 7.93441L74.1397 3.64929C74.0093 3.48602 73.7463 3.57771 73.7463 3.78695V7.79727C73.7463 7.91926 73.647 8.01826 73.5253 8.01826H72.6677C72.6091 8.01826 72.5529 7.99498 72.5114 7.95354C72.47 7.91209 72.4467 7.85588 72.4467 7.79727V1.44821C72.4467 1.32648 72.5452 1.22721 72.6677 1.22721H73.578C73.6452 1.22721 73.7087 1.25804 73.7505 1.31054L77.1639 5.58052C77.294 5.74378 77.5573 5.65131 77.5573 5.44285V1.44821C77.5573 1.32648 77.6555 1.22721 77.7778 1.22721H78.6445C78.7665 1.22721 78.8655 1.32648 78.8655 1.44821ZM56.5298 16.3176C56.5298 18.3113 54.987 19.8102 52.9447 19.8102C50.9061 19.8102 49.3594 18.3113 49.3594 16.3262C49.3594 14.3415 50.9061 12.8431 52.9447 12.8431C54.1168 12.8431 55.1278 13.3412 55.7704 14.138C55.7909 14.1632 55.8057 14.1926 55.8137 14.2241C55.8217 14.2556 55.8226 14.2885 55.8166 14.3204C55.8105 14.3523 55.7975 14.3825 55.7785 14.4089C55.7595 14.4353 55.735 14.4572 55.7066 14.4731L54.9486 14.8916C54.859 14.9412 54.7438 14.9253 54.6769 14.8475C54.2657 14.3676 53.6495 14.063 52.9398 14.063C51.6712 14.063 50.6809 15.0314 50.6809 16.3571C50.6809 17.5997 51.5607 18.59 52.9622 18.59C53.9593 18.59 54.6999 18.0911 55.0246 17.2998C55.0831 17.1562 54.9726 16.9984 54.8174 16.9984H53.5766C53.5476 16.9984 53.5189 16.9927 53.4921 16.9816C53.4653 16.9704 53.4409 16.9542 53.4204 16.9336C53.3999 16.9131 53.3837 16.8887 53.3726 16.8619C53.3615 16.8351 53.3558 16.8064 53.3559 16.7774V16.1322C53.3559 16.0096 53.4546 15.9109 53.5766 15.9109H56.3014C56.4185 15.9109 56.5138 16.0013 56.5222 16.1178C56.5271 16.1818 56.5298 16.2484 56.5298 16.3176V16.3176ZM64.0444 16.3265C64.0444 15.0489 63.0583 14.0633 61.7809 14.0633C60.5079 14.0633 59.5174 15.0489 59.5174 16.3265C59.5174 17.6042 60.5079 18.5898 61.7809 18.5898C63.0583 18.5898 64.0441 17.6042 64.0441 16.3265H64.0444ZM58.1953 16.3265C58.1953 14.3415 59.7428 12.8428 61.7809 12.8428C63.8187 12.8428 65.3665 14.3415 65.3665 16.3265C65.3665 18.3116 63.8187 19.8102 61.7809 19.8102C59.7428 19.8102 58.1956 18.3116 58.1956 16.3265H58.1953ZM72.9088 13.2305L70.5029 19.5793C70.4871 19.6211 70.459 19.6572 70.4222 19.6827C70.3854 19.7081 70.3418 19.7218 70.2971 19.7219H69.2404C69.1956 19.7219 69.1518 19.7083 69.1149 19.6828C69.0779 19.6574 69.0497 19.6212 69.0338 19.5793L66.6324 13.2305C66.6197 13.197 66.6153 13.161 66.6196 13.1255C66.6239 13.09 66.6367 13.0561 66.657 13.0267C66.6773 12.9972 66.7045 12.9732 66.7361 12.9565C66.7678 12.9399 66.803 12.9312 66.8387 12.9311H67.7561C67.8494 12.9311 67.9327 12.9901 67.9641 13.0779L69.5607 17.5524C69.6307 17.7478 69.9065 17.7478 69.9766 17.5527L71.5773 13.0779C71.5926 13.035 71.6207 12.9979 71.6579 12.9716C71.6951 12.9453 71.7395 12.9312 71.785 12.9311H72.7024C72.7382 12.9311 72.7735 12.9398 72.8051 12.9564C72.8368 12.973 72.864 12.9971 72.8843 13.0266C72.9046 13.056 72.9174 13.09 72.9217 13.1255C72.926 13.161 72.9215 13.197 72.9088 13.2305V13.2305ZM76.3238 14.3237V15.5311C76.3238 15.6531 76.4231 15.7518 76.5448 15.7518H78.5123C78.6343 15.7518 78.7333 15.8503 78.7333 15.9726V16.6891C78.7333 16.8111 78.6341 16.9101 78.5123 16.9101H76.5448C76.4862 16.9101 76.43 16.9334 76.3885 16.9748C76.3471 17.0163 76.3238 17.0725 76.3238 17.1311V18.3293C76.3238 18.4513 76.4231 18.5501 76.5448 18.5501H78.8396C78.9616 18.5501 79.0601 18.6493 79.0601 18.771V19.5006C79.0601 19.5296 79.0545 19.5583 79.0434 19.5851C79.0324 19.6119 79.0161 19.6363 78.9956 19.6568C78.9752 19.6773 78.9509 19.6936 78.9241 19.7047C78.8973 19.7159 78.8686 19.7216 78.8396 19.7216H75.2269C75.1979 19.7216 75.1692 19.7159 75.1424 19.7047C75.1157 19.6936 75.0914 19.6773 75.0709 19.6568C75.0504 19.6363 75.0342 19.6119 75.0231 19.5851C75.0121 19.5583 75.0064 19.5296 75.0064 19.5006V13.1526C75.0064 13.0304 75.1049 12.9316 75.2269 12.9316H78.8396C78.9616 12.9316 79.0601 13.0304 79.0601 13.1526V13.8825C79.0601 13.941 79.0369 13.997 78.9955 14.0384C78.9542 14.0797 78.8981 14.103 78.8396 14.103H76.5448C76.4862 14.103 76.43 14.1263 76.3886 14.1678C76.3472 14.2092 76.3239 14.2654 76.3238 14.324V14.3237ZM82.7507 15.5752C82.7507 15.697 82.85 15.796 82.9717 15.796H83.9975C84.6297 15.796 84.9703 15.4731 84.9703 14.9297C84.9703 14.3948 84.6297 14.0452 83.9975 14.0452H82.9717C82.9131 14.0452 82.8569 14.0685 82.8154 14.11C82.774 14.1514 82.7507 14.2076 82.7507 14.2662V15.575V15.5752ZM83.7253 16.8526H82.9717C82.9131 16.8527 82.857 16.876 82.8156 16.9173C82.7742 16.9587 82.7508 17.0148 82.7507 17.0734V19.5006C82.7507 19.5297 82.745 19.5584 82.734 19.5852C82.7229 19.612 82.7066 19.6364 82.6861 19.6569C82.6656 19.6774 82.6413 19.6937 82.6145 19.7048C82.5877 19.7159 82.559 19.7216 82.53 19.7216H81.6541C81.6251 19.7216 81.5964 19.7159 81.5696 19.7047C81.5428 19.6936 81.5185 19.6773 81.4981 19.6568C81.4776 19.6363 81.4614 19.6119 81.4503 19.5851C81.4392 19.5583 81.4336 19.5296 81.4336 19.5006V13.1526C81.4336 13.0304 81.5323 12.9316 81.6541 12.9316H84.0861C85.4828 12.9316 86.2477 13.8334 86.2477 14.9428C86.2477 15.686 85.8661 16.2818 85.2791 16.6008C85.2531 16.6148 85.2302 16.6339 85.2118 16.657C85.1934 16.6801 85.1798 16.7066 85.1719 16.7351C85.164 16.7635 85.162 16.7933 85.1659 16.8226C85.1698 16.8518 85.1796 16.88 85.1947 16.9054L86.6654 19.3886C86.6852 19.4222 86.6958 19.4604 86.6961 19.4993C86.6963 19.5383 86.6863 19.5767 86.667 19.6105C86.6476 19.6444 86.6197 19.6725 86.586 19.6921C86.5522 19.7116 86.5139 19.7219 86.475 19.7219H85.5607C85.5211 19.722 85.4822 19.7114 85.4481 19.6912C85.4141 19.671 85.3861 19.642 85.3671 19.6072L83.9189 16.9673C83.8998 16.9326 83.8718 16.9037 83.8378 16.8835C83.8037 16.8633 83.7649 16.8527 83.7253 16.8526V16.8526ZM95.2654 13.1521V19.5009C95.2654 19.6229 95.1664 19.7219 95.0444 19.7219H94.1249C94.0917 19.7219 94.0589 19.7143 94.029 19.6999C93.9991 19.6854 93.9729 19.6644 93.9523 19.6383L90.5396 15.3529C90.4093 15.1897 90.1462 15.2813 90.1462 15.4906V19.5009C90.1462 19.6229 90.047 19.7219 89.9252 19.7219H89.0671C89.0381 19.7219 89.0094 19.7161 88.9827 19.705C88.9559 19.6939 88.9316 19.6776 88.9111 19.6571C88.8906 19.6365 88.8744 19.6122 88.8633 19.5854C88.8523 19.5586 88.8466 19.5299 88.8466 19.5009V13.1521C88.8466 13.0304 88.9454 12.9311 89.0671 12.9311H89.978C90.0451 12.9311 90.1086 12.9619 90.1504 13.0144L93.5638 17.2844C93.6936 17.4477 93.9572 17.3552 93.9572 17.1465V13.1524C93.9572 13.0304 94.0554 12.9311 94.1777 12.9311H95.0444C95.1664 12.9311 95.2654 13.0304 95.2654 13.1521V13.1521ZM105.366 13.1521V19.5009C105.366 19.5299 105.36 19.5586 105.349 19.5854C105.338 19.6122 105.322 19.6365 105.301 19.6571C105.281 19.6776 105.256 19.6939 105.23 19.705C105.203 19.7161 105.174 19.7219 105.145 19.7219H104.269C104.211 19.7218 104.155 19.6985 104.113 19.6571C104.072 19.6157 104.048 19.5595 104.048 19.5009V15.8184C104.048 15.5765 103.715 15.5107 103.623 15.7348L102.049 19.5845C102.033 19.6251 102.004 19.6598 101.968 19.6842C101.932 19.7087 101.889 19.7218 101.845 19.7219H101.456C101.412 19.7218 101.369 19.7087 101.333 19.6841C101.296 19.6596 101.268 19.6247 101.251 19.584L99.6861 15.733C99.5947 15.5084 99.2609 15.5737 99.2609 15.8161V19.5009C99.2609 19.6229 99.1616 19.7219 99.0399 19.7219H98.1642C98.1057 19.7218 98.0495 19.6985 98.008 19.6571C97.9666 19.6157 97.9433 19.5595 97.9432 19.5009V13.1521C97.9432 13.0304 98.0425 12.9311 98.1642 12.9311H99.5819C99.6712 12.9311 99.7517 12.9852 99.7857 13.068L101.445 17.0854C101.52 17.2672 101.777 17.2677 101.852 17.0861L103.528 13.0672C103.545 13.027 103.573 12.9927 103.609 12.9685C103.645 12.9444 103.688 12.9314 103.731 12.9314H105.145C105.267 12.9314 105.366 13.0304 105.366 13.1521ZM109.366 14.3237V15.5311C109.366 15.6531 109.465 15.7518 109.587 15.7518H111.555C111.677 15.7518 111.775 15.8503 111.775 15.9726V16.6891C111.775 16.7181 111.77 16.7468 111.759 16.7736C111.748 16.8005 111.731 16.8248 111.711 16.8453C111.69 16.8659 111.666 16.8821 111.639 16.8933C111.612 16.9044 111.584 16.9101 111.555 16.9101H109.587C109.528 16.9101 109.472 16.9334 109.431 16.9748C109.389 17.0163 109.366 17.0725 109.366 17.1311V18.3293C109.366 18.4513 109.465 18.5501 109.587 18.5501H111.882C112.004 18.5501 112.102 18.6493 112.102 18.771V19.5006C112.102 19.5296 112.096 19.5583 112.085 19.5851C112.074 19.6119 112.058 19.6363 112.038 19.6568C112.017 19.6773 111.993 19.6936 111.966 19.7047C111.939 19.7159 111.911 19.7216 111.882 19.7216H108.269C108.24 19.7216 108.211 19.7159 108.184 19.7047C108.158 19.6936 108.133 19.6773 108.113 19.6568C108.092 19.6363 108.076 19.6119 108.065 19.5851C108.054 19.5583 108.048 19.5296 108.048 19.5006V13.1526C108.048 13.0304 108.147 12.9316 108.269 12.9316H111.882C112.004 12.9316 112.102 13.0304 112.102 13.1526V13.8825C112.102 13.941 112.079 13.997 112.038 14.0384C111.996 14.0797 111.94 14.103 111.882 14.103H109.587C109.528 14.103 109.472 14.1263 109.431 14.1678C109.389 14.2092 109.366 14.2654 109.366 14.324V14.3237ZM120.894 13.1521V19.5009C120.894 19.6229 120.795 19.7219 120.673 19.7219H119.754C119.721 19.7219 119.688 19.7143 119.658 19.6999C119.628 19.6854 119.602 19.6644 119.582 19.6383L116.169 15.3529C116.039 15.1897 115.775 15.2813 115.775 15.4906V19.5009C115.775 19.6229 115.676 19.7219 115.554 19.7219H114.696C114.667 19.7219 114.638 19.7162 114.612 19.7051C114.585 19.694 114.56 19.6777 114.54 19.6572C114.519 19.6366 114.503 19.6123 114.492 19.5855C114.481 19.5587 114.475 19.5299 114.475 19.5009V13.1521C114.475 13.0304 114.574 12.9311 114.696 12.9311H115.607C115.674 12.9311 115.738 12.9619 115.779 13.0144L119.193 17.2844C119.322 17.4477 119.586 17.3552 119.586 17.1465V13.1524C119.586 13.0304 119.684 12.9311 119.807 12.9311H120.673C120.795 12.9311 120.894 13.0304 120.894 13.1521" fill="black"/>
<mask id="mask0_162_291" style="mask-type:alpha" maskUnits="userSpaceOnUse" x="122" y="12" width="6" height="8">
<path d="M122.936 12.9314H127.746V19.7219H122.936V12.9314Z" fill="white"/>
</mask>
<g mask="url(#mask0_162_291)">
<path fill-rule="evenodd" clip-rule="evenodd" d="M127.525 14.1033H126.22C126.162 14.1033 126.106 14.1265 126.064 14.1679C126.023 14.2093 126 14.2654 126 14.324V19.5009C126 19.5595 125.976 19.6158 125.935 19.6572C125.893 19.6986 125.837 19.7219 125.779 19.7219H124.907C124.849 19.7219 124.793 19.6985 124.751 19.6571C124.71 19.6157 124.687 19.5595 124.687 19.5009V14.324C124.687 14.295 124.681 14.2662 124.67 14.2394C124.659 14.2125 124.643 14.1882 124.622 14.1676C124.601 14.1471 124.577 14.1308 124.55 14.1197C124.523 14.1086 124.495 14.103 124.466 14.103H123.157C123.098 14.103 123.042 14.0797 123.001 14.0383C122.959 13.9968 122.936 13.9406 122.936 13.882V13.1524C122.936 13.0304 123.035 12.9314 123.157 12.9314H127.525C127.647 12.9314 127.746 13.0307 127.746 13.1524V13.882C127.746 14.0042 127.647 14.103 127.525 14.103" fill="black"/>
</g>
<path fill-rule="evenodd" clip-rule="evenodd" d="M53.6918 26.8014C53.6918 26.1783 53.2937 25.7447 52.5333 25.7447H51.3661C51.3075 25.7448 51.2514 25.7681 51.2099 25.8095C51.1685 25.8509 51.1452 25.9071 51.1451 25.9657V27.624C51.1451 27.7459 51.2444 27.8447 51.3661 27.8447H52.5333C53.2937 27.8447 53.6918 27.4513 53.6918 26.8014ZM54.9692 26.8149C54.9692 28.0349 54.0941 28.9585 52.7323 28.9585H51.3661C51.3075 28.9585 51.2513 28.9818 51.2099 29.0233C51.1684 29.0647 51.1451 29.1209 51.1451 29.1795V31.2048C51.1452 31.2338 51.1395 31.2625 51.1284 31.2893C51.1173 31.3161 51.1011 31.3405 51.0806 31.361C51.0601 31.3815 51.0357 31.3977 51.0089 31.4088C50.9821 31.4199 50.9534 31.4256 50.9244 31.4256H50.0485C50.0195 31.4256 49.9908 31.4199 49.964 31.4088C49.9372 31.3977 49.9128 31.3815 49.8923 31.361C49.8717 31.3405 49.8555 31.3161 49.8444 31.2893C49.8332 31.2626 49.8275 31.2338 49.8275 31.2048V24.8558C49.8275 24.7338 49.9263 24.6353 50.0485 24.6353H52.7323C54.0941 24.6353 54.9695 25.6123 54.9695 26.8149H54.9692ZM58.4208 27.2791C58.4208 27.4009 58.52 27.5001 58.6418 27.5001H59.6673C60.2995 27.5001 60.6401 27.177 60.6401 26.6331C60.6401 26.0981 60.2995 25.7494 59.6673 25.7494H58.6418C58.6128 25.7494 58.5841 25.755 58.5573 25.7661C58.5305 25.7772 58.5061 25.7934 58.4856 25.8139C58.4651 25.8343 58.4488 25.8587 58.4377 25.8854C58.4265 25.9122 58.4208 25.9409 58.4208 25.9699V27.2791ZM59.3951 28.5565H58.6418C58.5832 28.5566 58.5271 28.5799 58.4857 28.6212C58.4442 28.6626 58.4209 28.7187 58.4208 28.7773V31.2046C58.4208 31.2336 58.4151 31.2623 58.404 31.2891C58.393 31.3159 58.3767 31.3403 58.3562 31.3608C58.3357 31.3813 58.3114 31.3976 58.2846 31.4087C58.2578 31.4198 58.229 31.4256 58.2 31.4256H57.3239C57.2949 31.4255 57.2662 31.4198 57.2394 31.4086C57.2127 31.3975 57.1883 31.3812 57.1679 31.3607C57.1474 31.3402 57.1312 31.3158 57.1201 31.289C57.109 31.2623 57.1034 31.2335 57.1034 31.2046V24.8558C57.1034 24.734 57.2021 24.6353 57.3239 24.6353H59.7559C61.1526 24.6353 61.9178 25.537 61.9178 26.6467C61.9178 27.3891 61.5364 27.9857 60.9486 28.3042C60.9227 28.3183 60.8999 28.3374 60.8815 28.3605C60.8632 28.3836 60.8497 28.4102 60.8418 28.4386C60.834 28.467 60.8319 28.4968 60.8358 28.526C60.8397 28.5552 60.8495 28.5834 60.8645 28.6088L62.3347 31.0922C62.3546 31.1257 62.3652 31.1639 62.3656 31.2029C62.3659 31.2419 62.3559 31.2802 62.3366 31.3141C62.3173 31.3479 62.2894 31.3761 62.2557 31.3957C62.222 31.4153 62.1837 31.4256 62.1448 31.4256H61.2305C61.1909 31.4255 61.1521 31.4149 61.118 31.3947C61.0839 31.3745 61.0559 31.3456 61.0369 31.3109L59.5887 28.6709C59.5697 28.6363 59.5417 28.6074 59.5077 28.5872C59.4737 28.5671 59.4349 28.5564 59.3954 28.5563L59.3951 28.5565ZM69.7156 28.0304C69.7156 26.753 68.7295 25.7672 67.4521 25.7672C66.1791 25.7672 65.1886 26.7528 65.1886 28.0304C65.1886 29.3081 66.1791 30.2937 67.4521 30.2937C68.7295 30.2937 69.7156 29.3081 69.7156 28.0304ZM63.8668 28.0304C63.8668 26.0451 65.414 24.5467 67.4521 24.5467C69.4899 24.5467 71.0376 26.0451 71.0376 28.0304C71.0376 30.0155 69.4899 31.5141 67.4521 31.5141C65.414 31.5141 63.8668 30.0155 63.8668 28.0304V28.0304ZM75.5192 30.254C76.9604 30.254 77.6586 29.4672 77.6586 28.0304C77.6586 26.5934 76.9604 25.8069 75.5192 25.8069H74.7849C74.7559 25.8068 74.7272 25.8125 74.7004 25.8236C74.6735 25.8347 74.6492 25.8509 74.6287 25.8714C74.6081 25.8919 74.5919 25.9163 74.5807 25.9431C74.5696 25.9699 74.5639 25.9986 74.5639 26.0276V30.033C74.5639 30.1552 74.6632 30.254 74.7849 30.254H75.519H75.5192ZM73.2513 24.8558C73.2513 24.734 73.35 24.6353 73.472 24.6353H75.5762C77.8316 24.6353 79.0243 25.9743 79.0243 28.0304C79.0243 30.0863 77.8316 31.4256 75.5762 31.4256H73.472C73.443 31.4256 73.4143 31.4198 73.3875 31.4087C73.3607 31.3976 73.3363 31.3813 73.3158 31.3608C73.2953 31.3403 73.2791 31.3159 73.268 31.2891C73.2569 31.2623 73.2512 31.2336 73.2513 31.2046V24.8558V24.8558ZM81.1418 29.0737V24.856C81.1418 24.7338 81.2405 24.635 81.3625 24.635H82.2384C82.3602 24.635 82.4594 24.7338 82.4594 24.856V28.8703C82.4594 29.9533 83.0824 30.3472 83.9006 30.3472C84.7227 30.3472 85.3457 29.9533 85.3457 28.8703V24.856C85.3457 24.7338 85.445 24.635 85.5667 24.635H86.447C86.569 24.635 86.6677 24.7338 86.6677 24.856V29.0737C86.6677 30.696 85.474 31.5138 83.9006 31.5138C82.3356 31.5138 81.1421 30.6962 81.1421 29.0737H81.1418ZM88.7445 28.0304C88.7445 26.0451 90.2873 24.5467 92.3295 24.5467C93.2475 24.5467 94.1221 24.8879 94.7516 25.4433C94.775 25.4636 94.7939 25.4887 94.8071 25.5168C94.8203 25.545 94.8274 25.5755 94.828 25.6066C94.8287 25.6376 94.8228 25.6685 94.8108 25.6971C94.7988 25.7258 94.781 25.7516 94.7584 25.7729L94.1516 26.3419C94.1116 26.3796 94.0588 26.4009 94.0038 26.4015C93.9488 26.4021 93.8956 26.3819 93.8548 26.345C93.4546 25.9806 92.9081 25.7672 92.3293 25.7672C91.0519 25.7672 90.0663 26.7483 90.0663 28.0304C90.0663 29.3122 91.0519 30.2937 92.3295 30.2937C92.9081 30.2937 93.4546 30.0802 93.8548 29.7156C93.8956 29.6787 93.9489 29.6586 94.0039 29.6592C94.0589 29.6598 94.1116 29.6812 94.1516 29.719L94.7584 30.2882C94.7809 30.3095 94.7987 30.3353 94.8107 30.3639C94.8227 30.3926 94.8285 30.4234 94.8279 30.4544C94.8273 30.4854 94.8201 30.5159 94.807 30.544C94.7939 30.5722 94.775 30.5972 94.7516 30.6176C94.1221 31.1727 93.2475 31.5141 92.3295 31.5141C90.2873 31.5141 88.7445 30.0155 88.7445 28.0304V28.0304ZM100.927 25.8069H99.6229C99.5939 25.8069 99.5652 25.8126 99.5384 25.8237C99.5116 25.8348 99.4872 25.8511 99.4667 25.8716C99.4462 25.8921 99.43 25.9165 99.4189 25.9433C99.4078 25.9701 99.4021 25.9989 99.4022 26.0279V31.2048C99.4021 31.2338 99.3964 31.2625 99.3853 31.2893C99.3742 31.316 99.3579 31.3404 99.3373 31.3608C99.3168 31.3813 99.2925 31.3975 99.2657 31.4086C99.2389 31.4196 99.2102 31.4253 99.1812 31.4253H98.31C98.281 31.4253 98.2523 31.4196 98.2255 31.4086C98.1987 31.3975 98.1744 31.3813 98.1538 31.3608C98.1333 31.3404 98.117 31.316 98.1059 31.2893C98.0948 31.2625 98.089 31.2338 98.089 31.2048V26.0279C98.0891 25.9989 98.0834 25.9701 98.0723 25.9433C98.0613 25.9165 98.045 25.8921 98.0245 25.8715C98.004 25.851 97.9797 25.8347 97.9528 25.8236C97.926 25.8125 97.8973 25.8068 97.8683 25.8069H96.5593C96.5303 25.8069 96.5015 25.8012 96.4747 25.79C96.4479 25.7789 96.4236 25.7627 96.4031 25.7421C96.3826 25.7216 96.3663 25.6972 96.3553 25.6704C96.3442 25.6436 96.3385 25.6149 96.3385 25.5859V24.856C96.3385 24.7338 96.4373 24.635 96.5593 24.635H100.927C101.049 24.635 101.148 24.7338 101.148 24.856V25.5859C101.148 25.7076 101.049 25.8069 100.927 25.8069V25.8069ZM102.745 30.2743L103.223 29.6774C103.242 29.6535 103.266 29.6337 103.293 29.6195C103.32 29.6053 103.349 29.5969 103.38 29.5949C103.41 29.5929 103.441 29.5973 103.47 29.6078C103.498 29.6183 103.524 29.6348 103.546 29.656C104.003 30.0967 104.632 30.3953 105.184 30.3953C105.714 30.3953 106.099 30.1215 106.099 29.6396C106.099 29.0338 105.494 28.8083 104.72 28.4682C103.831 28.079 102.894 27.637 102.894 26.4385C102.894 25.2361 103.831 24.5467 104.989 24.5467C105.756 24.5467 106.477 24.833 107.069 25.3064C107.16 25.379 107.173 25.5122 107.104 25.606L106.676 26.1864C106.659 26.2103 106.637 26.2305 106.611 26.2456C106.586 26.2607 106.557 26.2705 106.528 26.2744C106.499 26.2783 106.469 26.2763 106.44 26.2683C106.412 26.2604 106.385 26.2467 106.362 26.2282C105.906 25.8497 105.39 25.6653 104.959 25.6653C104.529 25.6653 104.19 25.8821 104.19 26.3061C104.19 26.8586 104.773 27.0754 105.556 27.4113C106.448 27.8052 107.417 28.2911 107.417 29.5554C107.417 30.8553 106.391 31.5094 105.18 31.5094C104.306 31.5094 103.41 31.1588 102.773 30.5794C102.73 30.5417 102.704 30.4891 102.699 30.4324C102.693 30.3757 102.71 30.3192 102.745 30.2743" fill="black"/>
<mask id="mask1_162_291" style="mask-type:alpha" maskUnits="userSpaceOnUse" x="0" y="0" width="12" height="33">
<path d="M0 0.212949H11.6689V32.4402H0V0.212949Z" fill="white"/>
</mask>
<g mask="url(#mask1_162_291)">
<path fill-rule="evenodd" clip-rule="evenodd" d="M11.5568 29.1911C11.6633 29.0078 11.6955 28.7907 11.647 28.5843C11.5985 28.378 11.4729 28.198 11.2959 28.0814C7.46684 25.5721 4.93584 21.2462 4.93584 16.3263C4.93584 11.4066 7.46684 7.08051 11.2959 4.57144C11.4728 4.45465 11.5985 4.27461 11.647 4.0682C11.6955 3.86179 11.6632 3.64464 11.5568 3.46124L9.92235 0.630352C9.68229 0.214482 9.14364 0.0877885 8.74005 0.347184C3.48421 3.72299 0 9.61595 0 16.3263C0 23.0369 3.48421 28.9296 8.74005 32.3054C9.14364 32.5645 9.68229 32.4378 9.92235 32.0225L11.5568 29.1911V29.1911Z" fill="#276EF1"/>
</g>
<path fill-rule="evenodd" clip-rule="evenodd" d="M28.0466 0.630588L26.4119 3.46174C26.3054 3.64509 26.2731 3.86221 26.3217 4.0686C26.3702 4.27498 26.4958 4.45498 26.6728 4.57168C30.5019 7.08074 33.0326 11.4069 33.0326 16.3263C33.0326 21.2464 30.5019 25.572 26.6728 28.0814C26.4958 28.198 26.3701 28.378 26.3216 28.5844C26.273 28.7908 26.3053 29.008 26.4119 29.1913L28.0466 32.0227C28.2864 32.4381 28.8251 32.5648 29.2289 32.3054C34.4845 28.9298 37.9684 23.0371 37.9684 16.3263C37.9684 9.61619 34.4845 3.72349 29.2289 0.34716C28.8253 0.0880253 28.2864 0.214719 28.0466 0.630588" fill="#276EF1"/>
</g>
<defs>
<clipPath id="clip0_162_291">
<rect width="128" height="32.6531" fill="white"/>
</clipPath>
</defs>
</svg>
