<svg width="128" height="60" viewBox="0 0 128 60" fill="none" xmlns="http://www.w3.org/2000/svg">
    <g clip-path="url(#clip0_25571_3773)">
        <path d="M2.09076 0.0742188C2.5202 0.0742188 2.89318 0.123836 3.20799 0.224781C3.52281 0.325726 3.78116 0.466022 3.98647 0.64738C4.19178 0.828739 4.34234 1.04432 4.44329 1.29753C4.54252 1.54904 4.59214 1.8245 4.59214 2.12562C4.59214 2.42675 4.54081 2.72274 4.43644 2.98109C4.33208 3.24115 4.17638 3.46357 3.96936 3.65006C3.76234 3.83656 3.50227 3.98198 3.18917 4.08635C2.87607 4.19072 2.51165 4.24205 2.09247 4.24205H1.19765V6.50561H0V0.0742188H2.09076ZM2.09076 3.30788C2.30976 3.30788 2.50138 3.2805 2.66392 3.22575C2.82646 3.171 2.96333 3.0923 3.07112 2.98964C3.17891 2.88699 3.25932 2.76209 3.31407 2.61666C3.36711 2.46952 3.39449 2.30527 3.39449 2.12562C3.39449 1.94598 3.36711 1.79713 3.31407 1.65854C3.26103 1.51996 3.18062 1.40019 3.07454 1.30267C2.96846 1.20514 2.8333 1.12986 2.66905 1.07853C2.50651 1.02721 2.31318 0.999832 2.09076 0.999832H1.19765V3.30788H2.09247H2.09076Z" fill="#F4F4F4"/>
        <path d="M12.8253 3.28841C12.8253 3.76063 12.7466 4.19691 12.5909 4.59898C12.4352 5.00105 12.2145 5.34837 11.9305 5.64265C11.6465 5.93693 11.3026 6.16619 10.9022 6.33044C10.5018 6.49469 10.057 6.57682 9.56767 6.57682C9.07835 6.57682 8.63864 6.49469 8.23828 6.33044C7.83792 6.16619 7.49403 5.93693 7.2083 5.64265C6.92258 5.34837 6.70015 5.00105 6.54275 4.59898C6.38534 4.19691 6.30664 3.76063 6.30664 3.28841C6.30664 2.81619 6.38534 2.3799 6.54275 1.97784C6.70015 1.57577 6.92086 1.22845 7.2083 0.934168C7.49403 0.639888 7.83792 0.412334 8.23828 0.246374C8.63864 0.0821247 9.08177 0 9.56767 0C9.89446 0 10.2007 0.0376405 10.4882 0.112921C10.7756 0.188202 11.0391 0.295991 11.2803 0.432865C11.5198 0.571451 11.7371 0.739122 11.927 0.935879C12.1187 1.13264 12.2812 1.35335 12.4147 1.5963C12.5481 1.83925 12.6491 2.10273 12.7192 2.38846C12.7894 2.67247 12.8236 2.9736 12.8236 3.2867L12.8253 3.28841ZM11.602 3.28841C11.602 2.93596 11.5541 2.61943 11.46 2.33884C11.3642 2.05825 11.2307 1.82043 11.0545 1.62538C10.88 1.43034 10.6661 1.27978 10.4163 1.17541C10.1665 1.07104 9.88249 1.01971 9.56939 1.01971C9.25628 1.01971 8.97227 1.07104 8.72247 1.17541C8.47097 1.27978 8.25881 1.42863 8.08259 1.62538C7.90636 1.82043 7.7712 2.05996 7.67539 2.33884C7.57957 2.61943 7.53338 2.93596 7.53338 3.28841C7.53338 3.64086 7.58128 3.95738 7.67539 4.23798C7.76949 4.51857 7.90636 4.75468 8.08259 4.94972C8.25881 5.14477 8.47268 5.29362 8.72247 5.39628C8.97227 5.50064 9.25628 5.55197 9.56939 5.55197C9.88249 5.55197 10.1665 5.50064 10.4163 5.39628C10.6661 5.29191 10.88 5.14306 11.0545 4.94972C11.229 4.75468 11.3642 4.51857 11.46 4.23798C11.5541 3.95738 11.602 3.64086 11.602 3.28841Z" fill="#F4F4F4"/>
        <path d="M23.3291 0.0742188L21.3324 6.50732H20.2511L18.8447 2.11194C18.8054 2.00586 18.7711 1.87412 18.7386 1.72013C18.7215 1.7937 18.7027 1.86385 18.6856 1.92887C18.6685 1.99388 18.648 2.05548 18.6274 2.11194L17.2091 6.50732H16.1243L14.1294 0.0742188H15.1303C15.2347 0.0742188 15.3202 0.0981718 15.3903 0.147789C15.4605 0.197406 15.5067 0.262421 15.5306 0.346257L16.6256 4.19414C16.6496 4.28824 16.6718 4.39261 16.6941 4.50382C16.7163 4.61503 16.7386 4.73137 16.7625 4.85285C16.7865 4.72795 16.8121 4.61161 16.8412 4.50211C16.8686 4.39261 16.8994 4.28995 16.9319 4.19585L18.1946 0.347968C18.2185 0.27953 18.2647 0.217937 18.3349 0.161476C18.405 0.105015 18.4906 0.0776406 18.5915 0.0776406H18.9422C19.0466 0.0776406 19.1304 0.103305 19.1955 0.152922C19.2605 0.202539 19.3101 0.269265 19.3426 0.347968L20.6018 4.19585C20.6634 4.38063 20.7199 4.59108 20.7712 4.83232C20.8106 4.59792 20.8534 4.38576 20.8995 4.19585L21.9945 0.347968C22.0117 0.274398 22.0578 0.209382 22.1297 0.156343C22.2016 0.103305 22.2888 0.0759297 22.3898 0.0759297H23.3291V0.0742188Z" fill="#F4F4F4"/>
        <path d="M26.6547 1.0255V2.81H28.9063V3.73048H26.6547V5.5492H29.5102V6.50561H25.4536V0.0742188H29.5102V1.0255H26.6547Z" fill="#F4F4F4"/>
        <path d="M37.3138 6.50561H36.2325C36.0272 6.50561 35.8801 6.42519 35.7877 6.26608L34.436 4.20612C34.3864 4.12912 34.33 4.07437 34.2701 4.04187C34.2085 4.00936 34.1195 3.99225 34.0015 3.99225H33.4899V6.50561H32.2939V0.0742188H34.2564C34.6927 0.0742188 35.0674 0.118703 35.3788 0.209382C35.6919 0.300062 35.9485 0.42667 36.1487 0.589209C36.3489 0.751747 36.496 0.946793 36.5918 1.17435C36.6859 1.4019 36.7338 1.6517 36.7338 1.92373C36.7338 2.14102 36.7013 2.34462 36.638 2.53796C36.5747 2.73129 36.4823 2.90581 36.3625 3.06321C36.2428 3.22062 36.0939 3.35921 35.9177 3.47726C35.7415 3.59531 35.5396 3.68942 35.3154 3.75785C35.3924 3.80234 35.4643 3.85538 35.5293 3.91526C35.5943 3.97685 35.6542 4.04871 35.7073 4.13084L37.3172 6.50561H37.3138ZM34.2359 3.13336C34.4617 3.13336 34.6585 3.10599 34.8261 3.04953C34.9938 2.99307 35.1307 2.91607 35.2402 2.81513C35.348 2.7159 35.4284 2.59784 35.4831 2.46097C35.5362 2.32409 35.5635 2.17524 35.5635 2.01099C35.5635 1.6842 35.4557 1.43441 35.2419 1.25989C35.0263 1.08538 34.6978 0.998121 34.2564 0.998121H33.4916V3.13336H34.2393H34.2359Z" fill="#F4F4F4"/>
        <path d="M40.956 1.0255V2.81H43.2075V3.73048H40.956V5.5492H43.8115V6.50561H39.7549V0.0742188H43.8115V1.0255H40.956Z" fill="#F4F4F4"/>
        <path d="M52.3886 3.28906C52.3886 3.76127 52.3099 4.19414 52.1525 4.58765C51.9951 4.98288 51.7744 5.32164 51.4903 5.60566C51.2063 5.88967 50.8624 6.11209 50.4621 6.26779C50.0617 6.42519 49.6169 6.5039 49.1275 6.5039H46.6758V0.0742188H49.1275C49.6169 0.0742188 50.0617 0.152922 50.4621 0.312038C50.8624 0.471155 51.2046 0.691865 51.4903 0.974168C51.7744 1.25818 51.9968 1.59695 52.1525 1.99046C52.3099 2.38569 52.3886 2.81855 52.3886 3.28906ZM51.1601 3.28906C51.1601 2.93661 51.1139 2.62008 51.0198 2.33949C50.9257 2.0589 50.7923 1.82279 50.6143 1.62774C50.4381 1.43441 50.2243 1.28385 49.9745 1.18119C49.7247 1.07682 49.4406 1.0255 49.1275 1.0255H47.8769V5.55433H49.1275C49.4424 5.55433 49.7247 5.503 49.9745 5.39863C50.2243 5.29427 50.4381 5.14542 50.6143 4.95208C50.7906 4.75875 50.9257 4.52093 51.0198 4.24033C51.1139 3.95974 51.1601 3.64322 51.1601 3.29077V3.28906Z" fill="#F4F4F4"/>
        <path d="M61.5577 0.0742188C61.9786 0.0742188 62.3396 0.11357 62.639 0.193984C62.9384 0.274398 63.1848 0.38903 63.3747 0.53617C63.5663 0.685021 63.7066 0.864669 63.7956 1.07511C63.8846 1.28556 63.929 1.52338 63.929 1.78686C63.929 1.93742 63.9068 2.08285 63.8623 2.21973C63.8178 2.35831 63.7494 2.48663 63.6553 2.6064C63.5612 2.72616 63.4431 2.83566 63.2994 2.93318C63.1557 3.03071 62.9846 3.11454 62.7861 3.18298C63.6707 3.38145 64.1121 3.8588 64.1121 4.61503C64.1121 4.88878 64.0608 5.14028 63.9564 5.37126C63.8521 5.60224 63.7015 5.80241 63.503 5.97009C63.3046 6.13776 63.0599 6.2695 62.769 6.3636C62.4782 6.45941 62.1463 6.50561 61.7733 6.50561H59.3438V0.0742188H61.5594H61.5577ZM60.5397 0.999832V2.85961H61.491C61.8999 2.85961 62.2096 2.78604 62.4183 2.63719C62.627 2.48834 62.7314 2.25394 62.7314 1.93058C62.7314 1.60721 62.6356 1.35742 62.4474 1.2137C62.2575 1.07169 61.9615 0.999832 61.5577 0.999832H60.5397ZM61.7493 5.57315C61.9717 5.57315 62.1582 5.54577 62.3105 5.49274C62.4611 5.4397 62.5825 5.36784 62.6732 5.27887C62.7639 5.1899 62.8289 5.08553 62.8683 4.96748C62.9076 4.84943 62.9281 4.72282 62.9281 4.58936C62.9281 4.45591 62.9059 4.32417 62.8614 4.21296C62.8169 4.10175 62.7468 4.00765 62.6527 3.92895C62.5586 3.85024 62.4354 3.79036 62.2848 3.7493C62.1343 3.70824 61.9546 3.6877 61.7442 3.6877H60.538V5.57315H61.7476H61.7493Z" fill="#F4F4F4"/>
        <path d="M69.413 4.01449V6.50561H68.2204V4.01449L65.8765 0.0742188H66.9304C67.0348 0.0742188 67.1169 0.0998827 67.1768 0.1495C67.2367 0.199117 67.288 0.264132 67.3308 0.341124L68.5045 2.49005C68.5729 2.61837 68.6328 2.73814 68.6841 2.85106C68.7354 2.96398 68.7833 3.0769 68.8244 3.18982C68.8638 3.0769 68.9082 2.96398 68.9579 2.85106C69.0075 2.73814 69.0656 2.61837 69.1307 2.49005L70.3009 0.341124C70.3334 0.276109 70.3831 0.214515 70.4481 0.158054C70.5131 0.101594 70.5969 0.0742188 70.6979 0.0742188H71.7569L69.413 4.0162V4.01449Z" fill="#F4F4F4"/>
        <path d="M15.5849 59.7042C15.1914 59.7042 14.8304 59.6255 14.5002 59.4493C13.7337 59.0403 13.6122 58.1695 13.5951 57.3705C13.5746 56.3867 13.7354 55.0008 13.9561 53.0846C13.9903 52.7903 14.0263 52.4841 14.0622 52.1658C14.0896 51.9212 14.1187 51.6714 14.1477 51.4181C14.6405 47.1477 15.2547 41.8352 14.3223 38.1636C13.4651 34.7913 10.5685 29.9579 8.83873 27.0716C8.56156 26.6097 8.32203 26.211 8.11843 25.8637C6.96526 23.8961 6.60768 22.6916 6.92249 21.8379C7.10043 21.3554 7.49565 21.0064 8.0979 20.7959C10.5907 19.9302 20.3054 21.2339 28.6325 24.1528C29.9328 24.6079 31.2468 25.1537 32.4034 25.6344C32.9372 25.8568 33.4436 26.0656 33.9124 26.2538C38.0956 27.9202 41.1 29.4053 43.0967 30.7946C44.8128 31.9888 45.7726 33.0941 46.1131 34.2695C46.5066 35.6228 46.2516 36.8735 45.2593 38.4527C44.3388 39.9173 42.7579 41.7189 39.8049 44.6685C37.543 46.927 33.9535 49.6217 29.1338 52.6791C25.238 55.1514 21.7101 57.1121 20.3755 57.841C18.4165 58.9086 16.8322 59.7076 15.5798 59.7076L15.5849 59.7042ZM10.4265 21.2425C9.47862 21.2425 8.75832 21.3177 8.3323 21.4649C7.93365 21.6035 7.6907 21.8054 7.58975 22.0825C7.3622 22.7002 7.72492 23.7866 8.73265 25.5044C8.93454 25.8483 9.17236 26.2469 9.44953 26.7072C11.1998 29.6277 14.1306 34.5159 15.0118 37.9891C15.9767 41.7856 15.354 47.1716 14.8544 51.5003C14.8253 51.7518 14.7962 52.0016 14.7688 52.2462C14.7329 52.5662 14.697 52.8724 14.6627 53.1667C14.2572 56.657 14.0554 58.409 14.8355 58.8248C15.8005 59.338 17.3472 58.6862 20.0419 57.2148C22.3226 55.9709 33.9706 49.4951 39.3087 44.1638C44.7529 38.7282 46.0686 36.6443 45.4372 34.4662C44.5955 31.5645 38.3095 28.7654 33.6541 26.9108C33.1801 26.7226 32.672 26.5104 32.1348 26.288C30.985 25.8106 29.683 25.27 28.3998 24.82C21.5424 22.4162 14.1888 21.2425 10.4265 21.2425Z" fill="#F4F4F4"/>
        <path d="M14.8575 56.781C13.9592 56.781 13.3211 56.6082 12.9258 56.2592C11.3672 54.887 11.3295 53.2035 11.6187 49.0921C11.9489 44.3853 12.1183 40.8043 11.2885 37.5912C10.5442 34.7134 9.51766 32.9426 8.42951 31.0691C8.1301 30.5524 7.82042 30.0186 7.51074 29.454C6.59197 27.7705 6.55946 26.2221 7.41322 24.8482C7.95045 23.9859 8.81789 23.2245 10.0634 22.5248C13.9524 20.3382 18.8799 19.8916 24.709 21.2005C27.0205 21.7189 29.9428 22.8687 31.5168 23.6882C35.6248 25.8217 38.7215 27.9056 40.725 29.8818C42.6601 31.7912 43.6405 33.6681 43.6405 35.4611C43.6405 40.4895 39.7053 44.8866 38.4991 46.1134C36.8019 47.8397 30.8444 52.0007 25.0136 54.1462C21.85 55.3096 19.2648 56.0966 17.3298 56.4867C16.3545 56.6835 15.5333 56.781 14.8575 56.781ZM18.5651 21.1783C15.47 21.1783 12.7411 21.8335 10.4125 23.1441C9.273 23.7857 8.48939 24.465 8.01717 25.2246C7.30714 26.3641 7.34649 27.673 8.13352 29.1153C8.43806 29.673 8.74603 30.2034 9.04202 30.715C10.1541 32.6329 11.2063 34.4431 11.9746 37.415C12.8334 40.7325 12.6624 44.3682 12.327 49.1434C12.0498 53.082 12.0721 54.5636 13.3946 55.7288C13.7437 56.0368 14.6847 56.2968 17.1895 55.7921C19.0886 55.4106 21.6396 54.6321 24.7689 53.4823C30.5005 51.3745 36.3382 47.3042 37.9944 45.6189C42.5763 40.9549 42.9321 36.6673 42.9321 35.4628C42.9321 32.1162 38.9816 28.3676 31.1917 24.3195C29.876 23.6369 26.9486 22.4324 24.555 21.8951C22.4301 21.4178 20.43 21.18 18.5651 21.18V21.1783Z" fill="#F4F4F4"/>
        <path d="M15.1532 53.9015C13.5141 53.9015 11.5209 53.597 10.1607 52.3651C9.23853 51.5302 8.73552 50.3787 8.66708 48.945C8.57983 47.1331 8.66195 45.9012 8.74065 44.7104C8.83475 43.3023 8.92201 41.9712 8.69275 39.8514C8.40702 37.2046 7.67303 35.5227 6.89627 33.7416C6.66701 33.2164 6.42919 32.6723 6.19821 32.0923C5.67295 30.7732 6.01001 29.3736 7.20082 27.9365C8.10419 26.8449 9.50373 25.702 11.5996 24.3384C12.118 24.0013 12.6621 23.6129 13.2387 23.2023C15.9368 21.2792 19.2954 18.8873 23.3725 19.4006C25.3692 19.6521 27.3385 20.2202 28.7739 20.9559C31.4105 22.3092 34.2746 24.4752 36.4321 26.7491C38.3466 28.7645 40.694 31.8973 41.0088 35.3687C41.5135 40.9378 38.3124 46.7122 36.6836 48.637C35.2105 50.377 33.6792 51.2479 31.0341 51.8518C25.1622 53.1915 20.7223 53.6312 15.8633 53.881C15.6357 53.893 15.3979 53.8998 15.1498 53.8998L15.1532 53.9015ZM22.2638 20.0405C18.9019 20.0405 16.0155 22.097 13.6527 23.7806C13.071 24.1964 12.5201 24.5882 11.9897 24.9321C9.9537 26.2546 8.6072 27.353 7.75002 28.3881C6.72347 29.6286 6.4309 30.7526 6.85863 31.8288C7.08447 32.3968 7.32058 32.9358 7.54642 33.4576C8.34543 35.29 9.09995 37.0198 9.39765 39.7744C9.63376 41.9575 9.54308 43.3177 9.44727 44.7566C9.36856 45.9286 9.28815 47.1399 9.3737 48.9107C9.43358 50.1495 9.85789 51.135 10.6364 51.8399C11.4012 52.5311 12.9205 53.325 15.829 53.1744C20.6522 52.9263 25.0578 52.4883 30.8784 51.1606C33.3866 50.5892 34.7639 49.809 36.1429 48.1802C36.9248 47.2563 38.0934 45.4153 39.0258 43.0183C39.753 41.1483 40.5657 38.315 40.3039 35.4338C40.0079 32.1642 37.7563 29.1717 35.9188 27.2384C33.8126 25.0193 31.0204 22.9063 28.4506 21.5872C27.8056 21.2553 26.0091 20.4477 23.2853 20.1038C22.9397 20.061 22.5975 20.0388 22.2621 20.0388L22.2638 20.0405Z" fill="#F4F4F4"/>
        <path d="M31.1865 54.1868C30.5637 54.1868 29.9957 54.079 29.5953 54.0037C29.4944 53.9849 29.4037 53.9678 29.325 53.9541C28.2625 53.7796 27.0974 53.499 25.7474 53.1739C23.7679 52.6982 21.3059 52.1046 18.0448 51.5776C17.2989 51.4578 16.493 51.3586 15.6375 51.2525C11.8085 50.7837 7.46785 50.2499 6.41734 47.4132C5.83905 45.8494 5.74837 44.248 5.60978 41.8236C5.58241 41.3445 5.55332 40.8483 5.5191 40.3026C5.44382 39.1186 5.22654 38.0955 5.03662 37.1938C4.45662 34.458 4.03573 32.4819 8.33872 29.7239C12.5664 27.0138 15.795 24.4456 18.2074 21.869C19.8242 20.1409 22.986 17.3898 25.9921 18.3616C28.2676 19.099 31.0616 21.3882 33.4654 24.4884C36.0883 27.8709 37.7753 31.5665 38.2133 34.8943C38.7351 38.8568 38.4203 42.7269 37.2791 46.3986C36.1961 49.8838 34.7144 52.0532 34.1293 52.8249C33.3012 53.9147 32.172 54.1833 31.1865 54.1833V54.1868ZM24.6969 18.8714C23.7628 18.8714 22.7345 19.217 21.6258 19.9048C20.6762 20.4951 19.6736 21.342 18.7258 22.3549C16.2723 24.9743 13.001 27.5801 8.72368 30.3227C6.87416 31.5084 5.8938 32.5315 5.54648 33.6436C5.22825 34.6616 5.45067 35.7138 5.73468 37.0466C5.93144 37.9723 6.15386 39.0211 6.23256 40.2581C6.26678 40.8056 6.29587 41.3034 6.32324 41.7842C6.46183 44.2291 6.54737 45.7057 7.08803 47.1685C7.98798 49.6015 12.0993 50.1045 15.7282 50.5493C16.5888 50.6554 17.4032 50.7546 18.1612 50.8778C21.4479 51.4099 23.9253 52.0053 25.9151 52.4844C27.2513 52.806 28.4045 53.0832 29.4396 53.2526C29.5235 53.2663 29.621 53.2851 29.7271 53.3056C30.6886 53.487 32.4782 53.8257 33.5647 52.3971C34.1276 51.6546 35.5528 49.5655 36.6033 46.1882C37.7137 42.6157 38.0199 38.8465 37.5118 34.9867C37.096 31.8283 35.4176 28.1601 32.9077 24.923C30.6219 21.9768 27.8895 19.7201 25.7765 19.0357C25.4326 18.9245 25.0733 18.868 24.6986 18.868L24.6969 18.8714Z" fill="#F4F4F4"/>
        <path d="M30.1737 57.1057C29.3096 57.1057 28.485 56.7242 27.9255 56.4676C27.8263 56.4214 27.7322 56.3786 27.6466 56.3409C26.4661 55.826 24.1717 54.4315 21.1844 52.4144C17.997 50.2603 14.2723 48.9001 8.46024 46.8573C5.78434 45.918 4.39336 45.2062 3.65766 44.4021C2.89116 43.5654 2.86721 42.6638 2.83812 41.5192C2.82443 41.0076 2.80903 40.4259 2.72862 39.7518C2.44461 37.3719 2.42065 35.8303 5.39596 34.2049C6.04098 33.8525 8.63133 32.2818 12.8864 29.6624C15.8823 27.818 18.4435 25.1182 19.8396 23.2071C20.6421 22.1086 21.3761 20.9247 22.0228 19.8793C23.087 18.1598 23.7166 17.1743 24.2573 16.904C25.277 16.3941 26.0589 17.0118 27.6175 18.2419L27.6329 18.2539C29.1899 19.4841 32.4013 24.6271 33.6622 27.9104C33.7136 28.0422 33.7649 28.1756 33.8162 28.3108C34.9129 31.1492 36.2783 34.6823 35.9583 41.7347C35.6709 48.0361 33.3594 54.6899 32.2456 56.0672C31.6126 56.8491 30.882 57.104 30.1771 57.104L30.1737 57.1057ZM24.9622 17.4395C24.8287 17.4395 24.7038 17.4737 24.5721 17.5405C24.1854 17.7338 23.3915 19.0153 22.6233 20.254C21.9697 21.3096 21.2289 22.5056 20.4094 23.6262C18.9722 25.5921 16.3391 28.3689 13.2543 30.2681C8.92732 32.932 6.39686 34.4667 5.73301 34.8294C3.14267 36.2444 3.15806 37.3992 3.4301 39.6696C3.51394 40.3763 3.53105 40.9751 3.54473 41.502C3.57382 42.6124 3.59264 43.2831 4.17949 43.9247C4.82109 44.6262 6.17101 45.302 8.69464 46.19C14.5597 48.2517 18.3203 49.6255 21.5814 51.8275C25.5644 54.5188 27.2685 55.4034 27.9306 55.6925C28.0213 55.7319 28.1188 55.7763 28.2232 55.826C29.4927 56.4111 30.7143 56.8371 31.693 55.6258C32.6391 54.4555 34.9626 47.9848 35.2483 41.7074C35.5631 34.8055 34.2269 31.3494 33.1541 28.5725C33.1011 28.4374 33.0497 28.3022 32.9984 28.1705C31.7956 25.036 28.6492 19.9666 27.1932 18.8168L27.1778 18.8048C25.9802 17.8587 25.4292 17.4446 24.9656 17.4446L24.9622 17.4395Z" fill="#F4F4F4"/>
        <path d="M28.3035 59.9996C27.7029 59.9996 27.0802 59.6933 26.4095 59.0671C25.8568 58.5521 25.1468 57.736 24.2503 56.7026C22.0483 54.167 19.0319 50.6938 15.4407 48.3259C10.0102 44.7449 4.47534 41.9031 1.97909 41.4137C0.307516 41.087 0.0235013 40.2623 0.00125916 39.8003C-0.0346704 38.9962 0.702741 38.1185 1.64717 37.8413C5.34621 36.7617 12.7049 33.1842 16.2927 30.3628C19.1842 28.089 21.3434 25.5825 22.3734 23.3053C23.3469 21.1546 23.9064 18.7234 23.9081 16.6361C23.9081 16.0167 23.9748 15.3614 24.4573 15.2023C25.0116 15.0209 25.607 15.6557 26.5789 16.9714C27.7491 18.5557 30.0058 22.9374 31.0273 26.7186C32.0487 30.4997 33.0701 34.6008 33.3695 39.5009C33.6159 43.5319 33.4636 47.1265 32.9179 50.1874C32.5517 52.2354 31.6364 56.2373 30.5243 58.2442C29.9425 59.293 29.3061 59.8593 28.5789 59.9756C28.4865 59.991 28.3959 59.9979 28.3018 59.9979L28.3035 59.9996ZM24.6985 15.9072C24.6677 15.9927 24.6198 16.1946 24.6181 16.6395C24.6147 18.8243 24.033 21.3616 23.0201 23.6012C21.9439 25.9794 19.7095 28.5801 16.7325 30.9223C13.0249 33.8395 5.68668 37.4033 1.84735 38.524C1.21944 38.7071 0.689053 39.2888 0.711295 39.7695C0.731827 40.2075 1.22971 40.5446 2.11426 40.7191C3.79439 41.0476 6.30433 42.235 8.11278 43.1726C10.5201 44.4199 13.261 46.0401 15.8308 47.7356C19.5042 50.1583 22.5565 53.6726 24.7858 56.239C25.6344 57.2159 26.3667 58.0594 26.8937 58.5487C27.4891 59.1031 28.0212 59.3494 28.4694 59.2776C28.9605 59.1989 29.443 58.7369 29.9049 57.9037C30.8339 56.227 31.7561 52.6648 32.2215 50.0659C32.7587 47.0598 32.9076 43.5216 32.6646 39.5471C32.3686 34.7137 31.3558 30.652 30.3446 26.9068C29.3471 23.2094 27.1486 18.9373 26.0108 17.3974C25.205 16.3076 24.8525 15.9893 24.6985 15.9089V15.9072Z" fill="#F4F4F4"/>
        <path d="M59.3056 36.0538C59.7521 36.0538 60.1405 36.0127 60.4724 35.9323C60.8026 35.8519 61.1192 35.739 61.4169 35.597V33.6619H60.0858C59.9574 33.6619 59.8582 33.626 59.7846 33.5558C59.7111 33.4857 59.6751 33.3984 59.6751 33.2941V32.1768H63.2133V36.4798C62.943 36.6766 62.6624 36.846 62.3716 36.9914C62.0807 37.1368 61.7676 37.2549 61.4374 37.349C61.1055 37.4431 60.7513 37.5115 60.3749 37.5577C59.9968 37.6039 59.5896 37.6278 59.1533 37.6278C58.3782 37.6278 57.6648 37.4927 57.0129 37.2224C56.3611 36.9537 55.7964 36.5773 55.3208 36.0966C54.8452 35.6158 54.4739 35.0426 54.207 34.3754C53.9401 33.7081 53.8066 32.981 53.8066 32.1905C53.8066 31.4001 53.9367 30.6575 54.1967 29.992C54.4568 29.3247 54.8264 28.7515 55.3037 28.2708C55.7811 27.79 56.3611 27.417 57.0437 27.1518C57.7247 26.8866 58.4895 26.7549 59.3381 26.7549C60.1867 26.7549 60.9583 26.8832 61.5931 27.1416C62.2278 27.3999 62.7668 27.7335 63.2082 28.1459L62.635 29.0441C62.5221 29.2255 62.3733 29.3161 62.1868 29.3161C62.0687 29.3161 61.949 29.2768 61.8258 29.1981C61.6684 29.104 61.5075 29.0116 61.3433 28.9192C61.179 28.8251 60.9977 28.7447 60.7992 28.6763C60.6007 28.6078 60.3766 28.5514 60.1302 28.5069C59.8822 28.4624 59.5964 28.4402 59.2731 28.4402C58.7478 28.4402 58.2739 28.5291 57.8496 28.7053C57.4253 28.8816 57.0642 29.1348 56.7648 29.4633C56.4654 29.7918 56.2345 30.187 56.0736 30.6472C55.9111 31.1075 55.8307 31.6225 55.8307 32.1922C55.8307 32.8047 55.9162 33.3505 56.0873 33.8296C56.2584 34.3069 56.4996 34.7107 56.8076 35.0392C57.1173 35.3677 57.4851 35.6192 57.9112 35.7937C58.3372 35.9682 58.8043 36.0555 59.309 36.0555L59.3056 36.0538Z" fill="#F4F4F4"/>
        <path d="M75.9959 32.1915C75.9959 32.9717 75.8659 33.6937 75.6058 34.3575C75.3458 35.0214 74.9796 35.5979 74.5091 36.0821C74.0386 36.568 73.4723 36.9462 72.8102 37.2182C72.148 37.4902 71.414 37.6271 70.6116 37.6271C69.8092 37.6271 69.0735 37.4902 68.4079 37.2182C67.7441 36.9462 67.1744 36.5663 66.7021 36.0821C66.2282 35.5962 65.8621 35.0214 65.602 34.3575C65.3419 33.6937 65.2119 32.9717 65.2119 32.1915C65.2119 31.4113 65.3419 30.6893 65.602 30.0254C65.8621 29.3616 66.2282 28.7867 66.7021 28.3008C67.1761 27.8149 67.7441 27.4368 68.4079 27.1648C69.0718 26.8927 69.8075 26.7559 70.6116 26.7559C71.4157 26.7559 72.148 26.8927 72.8102 27.1682C73.4723 27.4419 74.0386 27.8218 74.5091 28.3043C74.9796 28.7867 75.3458 29.3616 75.6058 30.0254C75.8659 30.6893 75.9959 31.4113 75.9959 32.1915ZM73.965 32.1915C73.965 31.6081 73.888 31.0845 73.7341 30.6209C73.5801 30.1572 73.3577 29.7637 73.0685 29.4403C72.7794 29.1169 72.4269 28.8689 72.0129 28.6978C71.5988 28.5267 71.1317 28.4411 70.6116 28.4411C70.0915 28.4411 69.6227 28.5267 69.2069 28.6978C68.7895 28.8689 68.4353 29.1169 68.1444 29.4403C67.8519 29.7637 67.6277 30.1572 67.4703 30.6209C67.3129 31.0845 67.2342 31.6081 67.2342 32.1915C67.2342 32.7749 67.3129 33.2985 67.4703 33.7621C67.6277 34.2258 67.8519 34.6176 68.1444 34.9392C68.4353 35.2609 68.7912 35.5073 69.2069 35.6784C69.6244 35.8495 70.0915 35.935 70.6116 35.935C71.1317 35.935 71.5988 35.8495 72.0129 35.6784C72.4269 35.5073 72.7794 35.2609 73.0685 34.9392C73.3577 34.6176 73.5801 34.2258 73.7341 33.7621C73.888 33.2985 73.965 32.7749 73.965 32.1915Z" fill="#F4F4F4"/>
        <path d="M76.834 26.8726H78.4303C78.6014 26.8726 78.7417 26.9136 78.8495 26.9975C78.9572 27.0813 79.0377 27.1891 79.0924 27.3208L81.5938 33.8087C81.6776 34.0191 81.7563 34.2518 81.8333 34.5033C81.9086 34.7565 81.9822 35.0217 82.0506 35.3006C82.1635 34.7377 82.3038 34.2398 82.4698 33.807L84.9626 27.3191C85.0071 27.2062 85.0858 27.1035 85.1987 27.0094C85.3116 26.9153 85.4519 26.8691 85.6179 26.8691H87.2142L82.9181 37.506H81.1301L76.834 26.8691V26.8726Z" fill="#F4F4F4"/>
        <path d="M97.1448 26.8721V28.4975H93.9454V37.5089H91.9658V28.4975H88.751V26.8721H97.1448Z" fill="#F4F4F4"/>
        <path d="M105.847 26.8721V28.4461H101.131V31.3958H104.846V32.9185H101.131V35.928H105.847V37.5089H99.1382V26.8721H105.847Z" fill="#F4F4F4"/>
        <path d="M115.609 35.0016C115.717 35.0016 115.81 35.0426 115.888 35.1265L116.668 35.9717C116.237 36.5055 115.705 36.9161 115.076 37.2001C114.446 37.4841 113.69 37.6278 112.807 37.6278C112.016 37.6278 111.308 37.4927 110.677 37.2224C110.047 36.9537 109.508 36.5773 109.062 36.0966C108.615 35.6158 108.273 35.0426 108.035 34.3754C107.797 33.7081 107.679 32.981 107.679 32.1905C107.679 31.4001 107.811 30.6592 108.076 29.9954C108.341 29.3315 108.714 28.7584 109.195 28.2776C109.676 27.7968 110.251 27.4239 110.92 27.1552C111.589 26.8883 112.328 26.7549 113.137 26.7549C113.946 26.7549 114.617 26.8815 115.207 27.133C115.798 27.3862 116.304 27.7198 116.727 28.1373L116.064 29.0561C116.025 29.1143 115.976 29.1673 115.914 29.2101C115.852 29.2546 115.768 29.2768 115.661 29.2768C115.553 29.2768 115.433 29.2323 115.315 29.1451C115.197 29.0561 115.048 28.9603 114.867 28.8576C114.685 28.755 114.456 28.6591 114.179 28.5702C113.902 28.4829 113.549 28.4384 113.123 28.4384C112.624 28.4384 112.164 28.5257 111.744 28.7002C111.325 28.8747 110.964 29.1228 110.663 29.4479C110.362 29.7713 110.126 30.1648 109.956 30.6284C109.787 31.0921 109.703 31.6139 109.703 32.1922C109.703 32.7705 109.789 33.3231 109.956 33.7885C110.126 34.2539 110.355 34.6474 110.644 34.9656C110.933 35.2856 111.274 35.5285 111.667 35.6979C112.059 35.8673 112.482 35.9511 112.932 35.9511C113.202 35.9511 113.445 35.9357 113.664 35.9067C113.883 35.8776 114.083 35.8314 114.268 35.7664C114.453 35.703 114.626 35.6209 114.79 35.52C114.954 35.419 115.117 35.2958 115.279 35.1487C115.329 35.1042 115.38 35.0683 115.433 35.0426C115.486 35.017 115.546 35.0016 115.609 35.0016Z" fill="#F4F4F4"/>
        <path d="M127.869 37.5089H125.876V32.8603H120.889V37.5089H118.896V26.8721H120.889V31.4471H125.876V26.8721H127.869V37.5089Z" fill="#F4F4F4"/>
        <path d="M58.6538 43.9699C58.6213 44.0332 58.5854 44.0794 58.5426 44.105C58.4998 44.1307 58.4502 44.1444 58.392 44.1444C58.3339 44.1444 58.2688 44.1222 58.1953 44.0777C58.1217 44.0332 58.0362 43.9819 57.9386 43.9271C57.8394 43.8724 57.7248 43.821 57.5913 43.7766C57.4596 43.7321 57.3022 43.7098 57.1225 43.7098C56.96 43.7098 56.818 43.7286 56.6965 43.768C56.575 43.8073 56.4741 43.8621 56.392 43.9322C56.3098 44.0024 56.2465 44.0862 56.2072 44.1838C56.1661 44.2813 56.1456 44.3874 56.1456 44.5037C56.1456 44.6525 56.1866 44.7757 56.2705 44.8733C56.3543 44.9725 56.4638 45.0563 56.6007 45.1265C56.7376 45.1966 56.8933 45.2582 57.0678 45.3147C57.2423 45.3694 57.4202 45.4293 57.6016 45.4909C57.7829 45.5525 57.9609 45.6261 58.1354 45.7082C58.3099 45.7903 58.4656 45.8964 58.6025 46.023C58.7394 46.1496 58.8488 46.3036 58.931 46.4867C59.0131 46.6697 59.0559 46.8922 59.0559 47.1539C59.0559 47.4379 59.008 47.7048 58.9104 47.9546C58.8129 48.2027 58.6709 48.42 58.4827 48.6048C58.2945 48.7896 58.0652 48.935 57.7949 49.0411C57.5246 49.1472 57.2149 49.2002 56.8659 49.2002C56.6657 49.2002 56.4672 49.1814 56.2722 49.142C56.0771 49.1027 55.8906 49.0462 55.711 48.9744C55.5331 48.9008 55.3654 48.8152 55.2097 48.7126C55.054 48.6116 54.9154 48.497 54.7939 48.3721L55.1344 47.8092C55.1669 47.7682 55.2046 47.7339 55.2491 47.7066C55.2935 47.6792 55.3449 47.6655 55.3996 47.6655C55.4732 47.6655 55.5502 47.6963 55.6357 47.7545C55.7213 47.8126 55.8205 47.8794 55.9351 47.9529C56.0498 48.0265 56.1849 48.0915 56.3406 48.1514C56.4963 48.2113 56.6828 48.2404 56.9018 48.2404C57.2354 48.2404 57.4955 48.1617 57.6786 48.0025C57.8616 47.8434 57.954 47.6159 57.954 47.3199C57.954 47.1539 57.913 47.0188 57.8291 46.9144C57.747 46.81 57.6358 46.7228 57.5006 46.6509C57.3638 46.5808 57.2081 46.5192 57.0336 46.4696C56.859 46.4199 56.6811 46.3669 56.5015 46.3087C56.3218 46.2506 56.1439 46.1804 55.9694 46.1C55.7948 46.0179 55.6391 45.9118 55.5023 45.7818C55.3654 45.65 55.2559 45.4875 55.1738 45.2907C55.0916 45.0957 55.0489 44.8527 55.0489 44.5653C55.0489 44.336 55.0951 44.1119 55.1857 43.8946C55.2781 43.6756 55.4116 43.4823 55.5878 43.3146C55.764 43.1452 55.9796 43.0118 56.2346 42.9091C56.4895 42.8065 56.782 42.7568 57.1105 42.7568C57.4818 42.7568 57.8257 42.815 58.1388 42.9314C58.4536 43.0477 58.7205 43.2102 58.9412 43.419L58.6538 43.9733V43.9699Z" fill="#F4F4F4"/>
        <path d="M64.7684 49.128H63.5913V42.8232H64.7684V49.128Z" fill="#F4F4F4"/>
        <path d="M70.2775 42.8308C70.3117 42.8342 70.3442 42.8445 70.3716 42.8565C70.3989 42.8702 70.4263 42.889 70.452 42.9129C70.4776 42.9369 70.5067 42.9711 70.5392 43.0105L73.8482 47.2262C73.8362 47.1253 73.8276 47.0243 73.8242 46.9268C73.8191 46.8293 73.8174 46.7386 73.8174 46.6548V42.8223H74.8508V49.127H74.2451C74.1527 49.127 74.0757 49.1134 74.0141 49.0843C73.9525 49.0552 73.8927 49.0021 73.8362 48.9269L70.5392 44.7282C70.5478 44.8206 70.5546 44.913 70.5598 45.0054C70.5632 45.0978 70.5666 45.1799 70.5666 45.2569V49.1288H69.5332V42.824H70.1474C70.2005 42.824 70.2432 42.8257 70.2792 42.8308H70.2775Z" fill="#F4F4F4"/>
        <path d="M82.1446 48.266C82.4098 48.266 82.639 48.2421 82.8358 48.1942C83.0325 48.1463 83.219 48.0795 83.397 47.9957V46.8494H82.6082C82.533 46.8494 82.4731 46.8289 82.4303 46.7861C82.3858 46.7433 82.3653 46.692 82.3653 46.6304V45.9683H84.4629V48.5193C84.3038 48.6356 84.1361 48.7365 83.9633 48.8221C83.7905 48.9076 83.6057 48.9778 83.409 49.0342C83.2122 49.089 83.0018 49.1318 82.7793 49.1591C82.5552 49.1865 82.314 49.2002 82.0556 49.2002C81.5971 49.2002 81.1728 49.1198 80.7861 48.9607C80.3994 48.7998 80.0658 48.5774 79.7835 48.2934C79.5012 48.0077 79.2805 47.6689 79.1231 47.2737C78.964 46.8785 78.8853 46.4473 78.8853 45.9785C78.8853 45.5097 78.9622 45.07 79.1162 44.6748C79.2702 44.2796 79.4892 43.9391 79.7715 43.6551C80.0555 43.3711 80.3994 43.1486 80.8032 42.9929C81.207 42.8355 81.6604 42.7568 82.1634 42.7568C82.6664 42.7568 83.1232 42.8338 83.4996 42.9861C83.876 43.1384 84.196 43.3368 84.456 43.5815L84.1156 44.1136C84.0488 44.2214 83.9599 44.2744 83.8504 44.2744C83.7802 44.2744 83.7101 44.2522 83.6365 44.2043C83.5441 44.1495 83.4483 44.0948 83.3508 44.0383C83.2533 43.9836 83.1455 43.9357 83.0274 43.8946C82.9094 43.8535 82.7776 43.821 82.6305 43.7937C82.4833 43.768 82.314 43.7543 82.1223 43.7543C81.8109 43.7543 81.5304 43.8056 81.2788 43.9117C81.0273 44.0161 80.8135 44.1666 80.6355 44.3617C80.4576 44.5567 80.3224 44.7911 80.2249 45.0632C80.1291 45.3369 80.0812 45.6415 80.0812 45.9785C80.0812 46.3412 80.1325 46.6646 80.2335 46.9486C80.3344 47.2326 80.4781 47.4704 80.6612 47.6655C80.8443 47.8605 81.0616 48.0094 81.3148 48.112C81.568 48.2147 81.8435 48.2677 82.1429 48.2677L82.1446 48.266Z" fill="#F4F4F4"/>
        <path d="M94.0033 49.1288H93.0965C92.9956 49.1288 92.9118 49.1031 92.845 49.0518C92.7783 49.0004 92.7321 48.9371 92.703 48.8619L92.2325 47.5752H89.6199L89.1494 48.8619C89.1255 48.9286 89.081 48.9902 89.0126 49.0449C88.9441 49.0997 88.8603 49.127 88.7611 49.127H87.8491L90.3265 42.8223H91.5259L94.0033 49.127V49.1288ZM89.9228 46.7471H91.9331L91.1649 44.6495C91.1307 44.5572 91.0913 44.4459 91.0486 44.321C91.0058 44.1944 90.9647 44.0576 90.9237 43.9087C90.8826 44.0576 90.8432 44.1944 90.8039 44.3228C90.7645 44.4511 90.7269 44.5623 90.6893 44.6581L89.9211 46.7471H89.9228Z" fill="#F4F4F4"/>
        <path d="M98.9173 46.9089V49.128H97.7437V42.8232H99.7968C100.218 42.8232 100.582 42.8729 100.892 42.9721C101.2 43.0713 101.455 43.2099 101.655 43.3861C101.855 43.5641 102.004 43.7762 102.1 44.0226C102.195 44.2707 102.243 44.541 102.243 44.8336C102.243 45.1262 102.192 45.4187 102.091 45.6737C101.988 45.9286 101.836 46.1476 101.633 46.3306C101.429 46.5137 101.174 46.6557 100.87 46.7584C100.565 46.8593 100.207 46.9107 99.7968 46.9107H98.9156L98.9173 46.9089ZM98.9173 45.9936H99.7985C100.014 45.9936 100.201 45.9662 100.361 45.9132C100.522 45.8601 100.654 45.7832 100.758 45.6822C100.863 45.5813 100.941 45.4598 100.994 45.3161C101.047 45.1724 101.073 45.0115 101.073 44.8336C101.073 44.6556 101.047 44.5119 100.994 44.3751C100.941 44.2382 100.864 44.1218 100.758 44.026C100.654 43.9302 100.522 43.8566 100.361 43.8053C100.202 43.754 100.014 43.7283 99.7985 43.7283H98.9173V45.9919V45.9936Z" fill="#F4F4F4"/>
        <path d="M111.961 45.9763C111.961 46.4383 111.884 46.866 111.73 47.2612C111.576 47.6547 111.359 47.9952 111.08 48.2844C110.801 48.5718 110.466 48.7959 110.073 48.9585C109.681 49.1193 109.246 49.1997 108.769 49.1997C108.291 49.1997 107.857 49.1193 107.463 48.9585C107.07 48.7977 106.733 48.5735 106.452 48.2844C106.172 47.9969 105.954 47.6565 105.8 47.2612C105.646 46.8677 105.569 46.44 105.569 45.9763C105.569 45.5127 105.646 45.0866 105.8 44.6914C105.954 44.2979 106.172 43.9557 106.452 43.6683C106.733 43.3808 107.07 43.155 107.463 42.9942C107.857 42.8333 108.293 42.7529 108.769 42.7529C109.244 42.7529 109.681 42.8333 110.073 42.9976C110.464 43.1618 110.801 43.3843 111.08 43.6717C111.359 43.9574 111.576 44.2979 111.73 44.6914C111.884 45.0849 111.961 45.5127 111.961 45.9763ZM110.759 45.9763C110.759 45.6307 110.712 45.3193 110.622 45.0456C110.531 44.7701 110.399 44.5374 110.226 44.3458C110.055 44.1542 109.847 44.007 109.6 43.9061C109.356 43.8052 109.078 43.7538 108.77 43.7538C108.463 43.7538 108.185 43.8052 107.937 43.9061C107.689 44.007 107.48 44.1542 107.308 44.3458C107.135 44.5374 107.001 44.7718 106.909 45.0456C106.817 45.321 106.769 45.6307 106.769 45.9763C106.769 46.3219 106.815 46.6333 106.909 46.9071C107.001 47.1825 107.135 47.4152 107.308 47.6051C107.48 47.795 107.691 47.9422 107.937 48.0431C108.184 48.1441 108.463 48.1954 108.77 48.1954C109.078 48.1954 109.356 48.1441 109.6 48.0431C109.847 47.9422 110.055 47.795 110.226 47.6051C110.398 47.4152 110.529 47.1825 110.622 46.9071C110.714 46.6333 110.759 46.3219 110.759 45.9763Z" fill="#F4F4F4"/>
        <path d="M116.783 46.6643V49.128H115.609V42.8232H117.532C117.964 42.8232 118.331 42.8677 118.638 42.9567C118.944 43.0457 119.195 43.1689 119.392 43.3297C119.589 43.4888 119.733 43.6804 119.823 43.9028C119.916 44.1253 119.96 44.3699 119.96 44.6368C119.96 44.849 119.929 45.0492 119.866 45.2391C119.805 45.4273 119.714 45.6001 119.596 45.7541C119.478 45.9081 119.332 46.0432 119.16 46.1596C118.987 46.2759 118.79 46.3683 118.569 46.4384C118.718 46.5223 118.845 46.6438 118.953 46.8012L120.532 49.1297H119.476C119.375 49.1297 119.288 49.1092 119.216 49.0681C119.144 49.0271 119.084 48.9689 119.035 48.8936L117.709 46.8747C117.659 46.7994 117.604 46.7447 117.544 46.7139C117.485 46.6814 117.397 46.666 117.281 46.666H116.78L116.783 46.6643ZM116.783 45.8225H117.515C117.736 45.8225 117.929 45.7951 118.094 45.7387C118.258 45.6839 118.393 45.6069 118.499 45.5094C118.605 45.4119 118.684 45.2973 118.737 45.1621C118.79 45.0286 118.816 44.8815 118.816 44.7224C118.816 44.4024 118.71 44.1561 118.499 43.985C118.289 43.8139 117.967 43.7283 117.532 43.7283H116.783V45.8208V45.8225Z" fill="#F4F4F4"/>
        <path d="M127.87 42.8232V43.7557H125.074V45.5043H127.276V46.4076H125.074V48.1904H127.87V49.128H123.894V42.8232H127.87Z" fill="#F4F4F4"/>
    </g>
    <defs>
        <clipPath id="clip0_25571_3773">
            <rect width="127.868" height="60" fill="white"/>
        </clipPath>
    </defs>
</svg>
