<svg width="2260" height="1397" viewBox="0 0 2260 1397" fill="none" xmlns="http://www.w3.org/2000/svg">
<path opacity="0.0144928" d="M1867.03 1192.04C1877.02 1194.34 1887.32 1189.75 1892.3 1180.79L2050.33 896.108C2053.28 890.808 2054.01 884.56 2052.37 878.724L1926.31 429.994C1925.02 425.404 1922.34 421.328 1918.63 418.33L1601.23 161.627C1594.51 156.191 1585.31 154.982 1577.41 158.498L1318.02 273.99C1310.12 277.505 1304.86 285.152 1304.4 293.783L1282.79 701.427C1282.54 706.188 1283.77 710.909 1286.32 714.938L1535.44 1108.87C1538.68 1114 1543.82 1117.63 1549.72 1118.99L1867.03 1192.04Z" stroke="#CAC8CA" stroke-width="4"/>
<path opacity="0.0289855" d="M1817.23 1203.84C1827.07 1206.64 1837.57 1202.61 1843 1193.95L2014.92 920.181C2018.15 915.04 2019.21 908.83 2017.88 902.907L1916.64 452.325C1915.59 447.66 1913.12 443.437 1909.56 440.244L1608.27 170.038C1601.85 164.274 1592.73 162.594 1584.68 165.688L1321.17 266.84C1313.11 269.933 1307.46 277.28 1306.54 285.864L1263.45 688.264C1262.94 693.018 1263.92 697.813 1266.26 701.982L1492.53 1104.57C1495.5 1109.86 1500.45 1113.77 1506.29 1115.43L1817.23 1203.84Z" stroke="#CAC8CA" stroke-width="4"/>
<path opacity="0.0434783" d="M1767.42 1214.04C1777.07 1217.32 1787.73 1213.86 1793.61 1205.53L1978.7 943.342C1982.21 938.375 1983.61 932.223 1982.59 926.229L1906.01 475.15C1905.21 470.421 1902.94 466.063 1899.54 462.683L1614.92 179.948C1608.8 173.873 1599.8 171.728 1591.6 174.392L1324.76 261.092C1316.56 263.756 1310.54 270.783 1309.16 279.293L1245.08 675.329C1244.32 680.064 1245.05 684.919 1247.18 689.217L1450.36 1099.16C1453.06 1104.61 1457.81 1108.76 1463.57 1110.72L1767.42 1214.04Z" stroke="#CAC8CA" stroke-width="4"/>
<path opacity="0.057971" d="M1717.67 1222.66C1727.12 1226.41 1737.91 1223.52 1744.22 1215.54L1941.75 965.559C1945.52 960.781 1947.25 954.701 1946.55 948.652L1894.39 498.414C1893.84 493.635 1891.8 489.15 1888.57 485.59L1621.08 191.324C1615.29 184.953 1606.42 182.35 1598.1 184.578L1328.73 256.758C1320.41 258.986 1314.03 265.673 1312.2 274.086L1227.68 662.673C1226.66 667.374 1227.14 672.278 1229.05 676.693L1409 1092.69C1411.42 1098.28 1415.95 1102.68 1421.61 1104.93L1717.67 1222.66Z" stroke="#CAC8CA" stroke-width="4"/>
<path opacity="0.0724638" d="M1668.08 1229.71C1677.3 1233.92 1688.19 1231.61 1694.9 1224L1904.1 986.797C1908.13 982.224 1910.18 976.235 1909.8 970.149L1881.78 522.06C1881.48 517.244 1879.67 512.644 1876.61 508.912L1626.68 204.124C1621.23 197.475 1612.52 194.422 1604.11 196.21L1332.98 253.842C1324.57 255.63 1317.86 261.959 1315.58 270.25L1211.22 650.345C1209.94 654.999 1210.16 659.937 1211.85 664.46L1368.5 1085.21C1370.63 1090.92 1374.94 1095.56 1380.49 1098.09L1668.08 1229.71Z" stroke="#CAC8CA" stroke-width="4"/>
<path opacity="0.0869565" d="M1618.73 1235.21C1627.7 1239.88 1638.66 1238.14 1645.75 1230.93L1865.82 1007.03C1870.1 1002.68 1872.48 996.798 1872.42 990.691L1868.16 546.032C1868.11 541.191 1866.54 536.487 1863.66 532.592L1631.65 218.304C1626.55 211.397 1618.03 207.904 1609.55 209.247L1337.43 252.346C1328.95 253.689 1321.93 259.645 1319.21 267.79L1195.68 638.391C1194.15 642.984 1194.1 647.943 1195.56 652.562L1328.91 1076.77C1330.74 1082.6 1334.82 1087.46 1340.24 1090.28L1618.73 1235.21Z" stroke="#CAC8CA" stroke-width="4"/>
<path opacity="0.101449" d="M1569.7 1239.2C1578.39 1244.3 1589.4 1243.15 1596.84 1236.35L1826.98 1026.24C1831.49 1022.12 1834.18 1016.36 1834.45 1010.25L1853.51 570.271C1853.72 565.419 1852.39 560.624 1849.71 556.575L1635.92 233.819C1631.19 226.671 1622.87 222.749 1614.35 223.645L1342.02 252.268C1333.49 253.164 1326.17 258.729 1323.03 266.705L1181.02 626.857C1179.24 631.375 1178.93 636.342 1180.15 641.045L1290.27 1067.45C1291.8 1073.37 1295.63 1078.44 1300.91 1081.53L1569.7 1239.2Z" stroke="#CAC8CA" stroke-width="4"/>
<path opacity="0.115942" d="M1521.07 1241.71C1529.47 1247.23 1540.48 1246.65 1548.26 1240.29L1787.62 1044.4C1792.36 1040.52 1795.36 1034.91 1795.95 1028.81L1837.83 594.721C1838.3 589.871 1837.22 584.997 1834.74 580.803L1639.43 250.616C1635.07 243.247 1626.98 238.909 1618.43 239.357L1346.66 253.599C1338.11 254.047 1330.52 259.208 1326.95 266.992L1167.23 615.785C1165.2 620.216 1164.63 625.176 1165.6 629.951L1252.63 1057.29C1253.85 1063.29 1257.42 1068.56 1262.54 1071.92L1521.07 1241.71Z" stroke="#CAC8CA" stroke-width="4"/>
<path opacity="0.130435" d="M1472.92 1242.77C1481.01 1248.69 1491.99 1248.69 1500.08 1242.77L1747.81 1061.5C1752.76 1057.87 1756.06 1052.42 1756.97 1046.35L1821.12 619.324C1821.85 614.489 1821.01 609.548 1818.74 605.219L1642.09 268.641C1638.12 261.071 1630.28 256.329 1621.73 256.329L1351.27 256.329C1342.72 256.329 1334.88 261.071 1330.91 268.641L1154.26 605.219C1151.99 609.548 1151.15 614.489 1151.88 619.324L1216.03 1046.35C1216.94 1052.42 1220.24 1057.87 1225.19 1061.5L1472.92 1242.77Z" stroke="#CAC8CA" stroke-width="4"/>
<path opacity="0.144928" d="M1425.32 1242.43C1433.08 1248.73 1444.01 1249.3 1452.38 1243.85L1707.62 1077.52C1712.76 1074.16 1716.36 1068.88 1717.59 1062.86L1803.37 644.023C1804.35 639.217 1803.78 634.221 1801.72 629.767L1643.87 287.837C1640.29 280.087 1632.71 274.955 1624.19 274.509L1355.78 260.442C1347.26 259.996 1339.19 264.307 1334.82 271.641L1142.09 595.198C1139.58 599.412 1138.48 604.32 1138.96 609.202L1180.49 1034.71C1181.08 1040.83 1184.11 1046.45 1188.88 1050.33L1425.32 1242.43Z" stroke="#CAC8CA" stroke-width="4"/>
<path opacity="0.15942" d="M1378.35 1240.73C1385.76 1247.39 1396.61 1248.53 1405.24 1243.55L1667.09 1092.44C1672.42 1089.37 1676.3 1084.28 1677.85 1078.32L1784.58 668.758C1785.83 663.995 1785.51 658.959 1783.67 654.391L1644.69 308.143C1641.51 300.233 1634.22 294.728 1625.75 293.837L1360.12 265.918C1351.64 265.027 1343.37 268.897 1338.62 275.974L1130.68 585.759C1127.94 589.846 1126.58 594.705 1126.8 599.623L1146.05 1022.43C1146.33 1028.58 1149.06 1034.36 1153.64 1038.48L1378.35 1240.73Z" stroke="#CAC8CA" stroke-width="4"/>
<path opacity="0.173913" d="M1332.08 1237.71C1339.12 1244.72 1349.85 1246.42 1358.71 1241.93L1626.3 1106.28C1631.8 1103.49 1635.95 1098.61 1637.82 1092.73L1764.77 693.475C1766.27 688.768 1766.21 683.704 1764.6 679.032L1644.5 329.496C1641.74 321.448 1634.76 315.584 1626.35 314.253L1364.21 272.733C1355.8 271.402 1347.35 274.821 1342.23 281.621L1120 576.937C1117.03 580.884 1115.41 585.682 1115.38 590.622L1112.74 1009.57C1112.7 1015.73 1115.14 1021.66 1119.51 1026.01L1332.08 1237.71Z" stroke="#CAC8CA" stroke-width="4"/>
<path opacity="0.188406" d="M1286.57 1233.44C1293.22 1240.77 1303.81 1243.02 1312.87 1239.03L1585.3 1119.01C1590.95 1116.52 1595.36 1111.86 1597.54 1106.08L1743.93 718.118C1745.68 713.48 1745.89 708.401 1744.52 703.637L1643.27 351.83C1640.92 343.665 1634.26 337.46 1625.95 335.693L1367.98 280.861C1359.67 279.095 1351.06 282.054 1345.59 288.557L1110 568.767C1106.81 572.561 1104.93 577.285 1104.65 582.234L1080.58 996.199C1080.22 1002.37 1082.36 1008.42 1086.51 1012.99L1286.57 1233.44Z" stroke="#CAC8CA" stroke-width="4"/>
<path opacity="0.202899" d="M1241.88 1227.96C1248.13 1235.59 1258.55 1238.38 1267.78 1234.9L1544.15 1130.65C1549.94 1128.46 1554.6 1124.04 1557.09 1118.38L1722.09 742.631C1724.09 738.076 1724.56 732.994 1723.42 728.15L1640.93 375.077C1639 366.816 1632.68 360.289 1624.49 358.093L1371.37 290.27C1363.17 288.074 1354.43 290.567 1348.63 296.755L1100.65 561.279C1097.25 564.908 1095.12 569.544 1094.57 574.489L1049.59 982.391C1048.91 988.541 1050.74 994.704 1054.66 999.49L1241.88 1227.96Z" stroke="#CAC8CA" stroke-width="4"/>
<path opacity="0.217391" d="M1198.07 1221.33C1203.91 1229.24 1214.13 1232.56 1223.51 1229.59L1502.92 1141.19C1508.82 1139.32 1513.73 1135.14 1516.52 1129.61L1699.24 766.958C1701.49 762.499 1702.23 757.43 1701.34 752.517L1637.46 399.167C1635.95 390.833 1629.98 384.002 1621.93 381.385L1374.3 300.925C1366.25 298.308 1357.4 300.329 1351.29 306.185L1091.91 554.503C1088.31 557.956 1085.92 562.488 1085.12 567.416L1019.79 968.211C1018.79 974.328 1020.3 980.587 1023.98 985.573L1198.07 1221.33Z" stroke="#CAC8CA" stroke-width="4"/>
<path opacity="0.231884" d="M1155.19 1213.61C1160.61 1221.78 1170.61 1225.61 1180.1 1223.17L1461.65 1150.64C1467.66 1149.09 1472.79 1145.18 1475.88 1139.79L1675.42 791.048C1677.91 786.698 1678.91 781.655 1678.27 776.684L1632.8 424.028C1631.72 415.643 1626.13 408.527 1618.23 405.497L1376.72 312.789C1368.83 309.759 1359.91 311.304 1353.49 316.812L1083.73 548.464C1079.93 551.728 1077.3 556.145 1076.24 561.043L991.177 953.728C989.862 959.795 991.056 966.136 994.487 971.31L1155.19 1213.61Z" stroke="#CAC8CA" stroke-width="4"/>
<path opacity="0.246377" d="M1113.3 1204.87C1118.28 1213.27 1128.03 1217.61 1137.61 1215.69L1420.42 1159.01C1426.52 1157.79 1431.86 1154.15 1435.23 1148.92L1650.64 814.848C1653.37 810.621 1654.63 805.616 1654.24 800.601L1626.94 449.588C1626.29 441.173 1621.08 433.793 1613.37 430.36L1378.57 325.821C1370.86 322.388 1361.89 323.454 1355.2 328.598L1076.08 543.185C1072.09 546.251 1069.21 550.54 1067.9 555.394L963.77 939.014C962.141 945.015 963.011 951.421 966.183 956.77L1113.3 1204.87Z" stroke="#CAC8CA" stroke-width="4"/>
<path opacity="0.26087" d="M1072.45 1195.16C1076.98 1203.78 1086.45 1208.6 1096.08 1207.21L1379.28 1166.31C1385.44 1165.42 1390.98 1162.07 1394.63 1157.02L1624.92 838.308C1627.88 834.216 1629.41 829.263 1629.27 824.216L1619.85 475.771C1619.62 467.349 1614.8 459.725 1607.3 455.9L1379.78 339.977C1372.28 336.152 1363.28 336.738 1356.33 341.504L1068.89 538.69C1064.73 541.546 1061.62 545.694 1060.05 550.492L937.569 924.136C935.629 930.056 936.173 936.509 939.076 942.02L1072.45 1195.16Z" stroke="#CAC8CA" stroke-width="4"/>
<path opacity="0.275362" d="M1032.67 1184.57C1036.75 1193.37 1045.91 1198.66 1055.57 1197.8L1338.27 1172.57C1344.49 1172.01 1350.21 1168.95 1354.13 1164.1L1598.29 861.379C1601.47 857.434 1603.26 852.547 1603.38 847.48L1611.49 502.503C1611.69 494.095 1607.28 486.25 1600 482.045L1380.31 355.21C1373.03 351.004 1364.03 351.11 1356.85 355.485L1062.14 534.995C1057.82 537.632 1054.48 541.625 1052.65 546.354L912.573 909.164C910.326 914.986 910.54 921.471 913.168 927.132L1032.67 1184.57Z" stroke="#CAC8CA" stroke-width="4"/>
<path opacity="0.289855" d="M993.998 1173.16C997.621 1182.11 1006.46 1187.85 1016.12 1187.52L1297.47 1177.78C1303.71 1177.57 1309.6 1174.82 1313.78 1170.17L1570.78 884.013C1574.18 880.227 1576.23 875.42 1576.6 870.346L1601.86 529.708C1602.48 521.335 1598.49 513.29 1591.45 508.718L1380.11 371.47C1373.06 366.898 1364.09 366.525 1356.7 370.497L1055.78 532.118C1051.3 534.526 1047.74 538.353 1045.66 542.999L888.779 894.166C886.229 899.874 886.112 906.375 888.456 912.171L993.998 1173.16Z" stroke="#CAC8CA" stroke-width="4"/>
<path opacity="0.304348" d="M956.478 1160.99C959.635 1170.08 968.123 1176.25 977.75 1176.44L1256.91 1181.99C1263.17 1182.12 1269.21 1179.68 1273.64 1175.25L1542.41 906.166C1546.02 902.551 1548.33 897.837 1548.96 892.767L1590.93 557.308C1591.97 548.993 1588.41 540.771 1581.63 535.845L1379.11 388.707C1372.33 383.782 1363.41 382.933 1355.83 386.492L1049.76 530.072C1045.13 532.242 1041.36 535.891 1039.04 540.442L866.177 879.211C863.33 884.79 862.882 891.288 864.935 897.205L956.478 1160.99Z" stroke="#CAC8CA" stroke-width="4"/>
<path opacity="0.318841" d="M920.134 1148.14C922.82 1157.35 930.94 1163.92 940.506 1164.64L1216.65 1185.21C1222.91 1185.68 1229.09 1183.57 1233.75 1179.37L1513.22 927.793C1517.04 924.36 1519.59 919.752 1520.49 914.701L1578.71 585.228C1580.16 576.992 1577.03 568.614 1570.53 563.351L1377.29 406.868C1370.79 401.604 1361.95 400.283 1354.19 403.419L1044.02 528.87C1039.27 530.793 1035.29 534.251 1032.73 538.694L844.754 864.365C841.617 869.8 840.837 876.28 842.594 882.303L920.134 1148.14Z" stroke="#CAC8CA" stroke-width="4"/>
<path opacity="0.333333" d="M884.993 1134.69C887.205 1143.98 894.935 1150.94 904.412 1152.17L1176.75 1187.47C1182.98 1188.28 1189.28 1186.5 1194.17 1182.55L1483.25 948.853C1487.26 945.615 1490.06 941.125 1491.21 936.105L1565.17 613.39C1567.04 605.253 1564.35 596.745 1558.14 591.16L1374.6 425.893C1368.39 420.308 1359.65 418.523 1351.75 421.228L1038.54 528.518C1033.66 530.187 1029.49 533.443 1026.69 537.766L824.495 849.694C821.075 854.969 819.964 861.413 821.419 867.529L884.993 1134.69Z" stroke="#CAC8CA" stroke-width="4"/>
<path opacity="0.347826" d="M851.074 1120.7C852.811 1130.06 860.133 1137.38 869.492 1139.12L1137.24 1188.8C1143.44 1189.94 1149.83 1188.5 1154.93 1184.81L1452.53 969.308C1456.72 966.274 1459.76 961.916 1461.17 956.939L1550.33 641.718C1552.6 633.701 1550.35 625.085 1544.46 619.194L1371 445.73C1365.1 439.839 1356.49 437.593 1348.47 439.861L1033.25 529.022C1028.27 530.43 1023.92 533.474 1020.88 537.663L805.38 835.26C801.686 840.361 800.246 846.755 801.395 852.947L851.074 1120.7Z" stroke="#CAC8CA" stroke-width="4"/>
<path opacity="0.362319" d="M818.396 1106.25C819.656 1115.65 826.554 1123.31 835.768 1125.54L1098.18 1189.22C1104.31 1190.71 1110.78 1189.61 1116.08 1186.19L1421.09 989.119C1425.45 986.3 1428.74 982.087 1430.4 977.166L1534.18 670.137C1536.84 662.261 1535.05 653.561 1529.48 647.382L1366.45 466.315C1360.89 460.136 1352.42 457.441 1344.31 459.265L1028.12 530.387C1023.05 531.526 1018.52 534.349 1015.26 538.393L787.386 821.13C783.427 826.043 781.659 832.366 782.498 838.62L818.396 1106.25Z" stroke="#CAC8CA" stroke-width="4"/>
<path opacity="0.376812" d="M786.969 1091.42C787.754 1100.83 794.211 1108.8 803.253 1111.53L1059.6 1188.78C1065.65 1190.6 1072.19 1189.85 1077.68 1186.71L1388.99 1008.25C1393.51 1005.66 1397.02 1001.6 1398.94 996.75L1516.74 698.572C1519.79 690.856 1518.44 682.095 1513.22 675.648L1360.93 487.59C1355.71 481.142 1347.42 478.006 1339.24 479.384L1023.09 532.612C1017.94 533.478 1013.24 536.068 1009.77 539.956L770.486 807.361C766.27 812.072 764.18 818.311 764.705 824.611L786.969 1091.42Z" stroke="#CAC8CA" stroke-width="4"/>
<path opacity="0.391304" d="M756.801 1076.28C757.114 1085.68 763.116 1093.94 771.959 1097.14L1021.55 1187.5C1027.51 1189.66 1034.09 1189.26 1039.74 1186.41L1356.25 1026.68C1360.93 1024.32 1364.66 1020.43 1366.83 1015.66L1498.01 726.951C1501.43 719.413 1500.54 710.615 1495.68 703.917L1354.42 509.493C1349.55 502.795 1341.46 499.229 1333.23 500.157L1018.12 535.697C1012.91 536.285 1008.06 538.633 1004.37 542.353L754.651 794.013C750.19 798.509 747.78 804.646 747.99 810.976L756.801 1076.28Z" stroke="#CAC8CA" stroke-width="4"/>
<path opacity="0.405797" d="M727.896 1060.9C727.739 1070.26 733.275 1078.79 741.893 1082.45L984.066 1185.43C989.906 1187.91 996.513 1187.87 1002.32 1185.32L1322.94 1044.37C1327.75 1042.25 1331.7 1038.54 1334.12 1033.86L1478.01 755.198C1481.8 747.857 1481.36 739.047 1476.86 732.118L1346.88 531.963C1342.38 525.034 1334.51 521.051 1326.26 521.528L1013.16 539.638C1007.91 539.941 1002.92 542.039 999.02 545.58L739.848 781.143C735.152 785.412 732.429 791.431 732.322 797.777L727.896 1060.9Z" stroke="#CAC8CA" stroke-width="4"/>
<path opacity="0.42029" d="M700.254 1045.36C699.631 1054.66 704.688 1063.42 713.057 1067.53L947.183 1182.6C952.89 1185.41 959.503 1185.72 965.452 1183.48L1289.08 1061.29C1294.03 1059.42 1298.18 1055.9 1300.84 1051.33L1456.76 783.244C1460.91 776.118 1460.92 767.319 1456.8 760.18L1338.3 554.936C1334.18 547.797 1326.55 543.41 1318.31 543.436L1008.17 544.427C1002.89 544.444 997.767 546.282 993.676 549.632L726.041 768.806C721.121 772.835 718.089 778.72 717.664 785.065L700.254 1045.36Z" stroke="#CAC8CA" stroke-width="4"/>
<path opacity="0.434783" d="M673.868 1029.73C672.787 1038.95 677.356 1047.92 685.452 1052.46L910.935 1179.06C916.491 1182.18 923.092 1182.85 929.164 1180.92L1254.73 1077.42C1259.79 1075.81 1264.14 1072.5 1267.04 1068.04L1434.29 811.021C1438.78 804.127 1439.24 795.362 1435.51 788.034L1328.67 578.348C1324.93 571.02 1317.57 566.243 1309.35 565.82L1003.11 550.056C997.805 549.783 992.569 551.355 988.291 554.504L713.191 757.052C708.061 760.83 704.726 766.567 703.984 772.895L673.868 1029.73Z" stroke="#CAC8CA" stroke-width="4"/>
<path opacity="0.449275" d="M648.73 1014.08C647.197 1023.2 651.269 1032.34 659.069 1037.3L875.354 1174.84C880.741 1178.27 887.31 1179.3 893.489 1177.69L1219.93 1092.74C1225.1 1091.39 1229.63 1088.29 1232.77 1083.97L1410.62 838.46C1415.44 831.815 1416.34 823.108 1413.01 815.611L1317.96 602.136C1314.62 594.64 1307.55 589.489 1299.39 588.62L997.926 556.513C992.619 555.948 987.28 557.247 982.825 560.186L701.256 745.933C695.927 749.449 692.299 755.021 691.24 761.317L648.73 1014.08Z" stroke="#CAC8CA" stroke-width="4"/>
<path opacity="0.463768" d="M624.826 998.486C622.85 1007.47 626.42 1016.77 633.902 1022.13L840.466 1170C845.668 1173.72 852.187 1175.11 858.455 1173.83L1184.74 1107.23C1189.99 1106.15 1194.71 1103.28 1198.07 1099.1L1385.79 865.497C1390.91 859.116 1392.27 850.49 1389.33 842.847L1306.18 626.236C1303.25 618.594 1296.47 613.087 1288.39 611.776L992.579 563.786C987.286 562.928 981.858 563.946 977.235 566.665L690.194 735.494C684.679 738.737 680.765 744.131 679.391 750.38L624.826 998.486Z" stroke="#CAC8CA" stroke-width="4"/>
<path opacity="0.478261" d="M602.14 983.014C599.73 991.85 602.792 1001.27 609.935 1007.01L806.301 1164.56C811.301 1168.58 817.748 1170.32 824.088 1169.37L1149.19 1120.87C1154.52 1120.07 1159.41 1117.43 1162.99 1113.41L1359.82 892.07C1365.25 885.967 1367.03 877.444 1364.51 869.677L1293.32 650.587C1290.8 642.82 1284.35 636.974 1276.37 635.227L987.027 571.858C981.763 570.705 976.261 571.438 971.482 573.927L679.956 725.78C674.271 728.741 670.079 733.941 668.392 740.126L602.14 983.014Z" stroke="#CAC8CA" stroke-width="4"/>
<path opacity="0.492754" d="M580.649 967.732C577.815 976.396 580.366 985.916 587.152 992.003L772.877 1158.59C777.659 1162.88 784.017 1164.97 790.412 1164.37L1113.35 1133.65C1118.74 1133.14 1123.78 1130.74 1127.58 1126.88L1332.77 918.118C1338.48 912.308 1340.69 903.911 1338.58 896.042L1279.38 675.123C1277.28 667.254 1271.16 661.088 1263.31 658.912L981.231 580.712C976.012 579.265 970.449 579.707 965.524 581.958L670.496 716.831C664.653 719.502 660.194 724.494 658.197 730.599L580.649 967.732Z" stroke="#CAC8CA" stroke-width="4"/>
<path opacity="0.507246" d="M560.33 952.705C557.085 961.177 559.123 970.764 565.533 977.184L740.217 1152.12C744.766 1156.68 751.015 1159.12 757.447 1158.85L1077.26 1145.57C1082.7 1145.34 1087.88 1143.2 1091.88 1139.51L1304.66 943.583C1310.64 938.079 1313.27 929.83 1311.58 921.882L1264.37 699.783C1262.68 691.835 1256.92 685.368 1249.22 682.771L975.151 590.327C969.993 588.588 964.385 588.734 959.325 590.74L661.761 708.684C655.776 711.056 651.06 715.827 648.757 721.839L560.33 952.705Z" stroke="#CAC8CA" stroke-width="4"/>
<path opacity="0.521739" d="M541.154 937.998C537.51 946.257 539.035 955.884 545.052 962.613L708.339 1145.21C712.639 1150.02 718.761 1152.8 725.211 1152.88L1040.96 1156.61C1046.44 1156.67 1051.75 1154.79 1055.95 1151.28L1275.54 968.413C1281.77 963.227 1284.81 955.145 1283.54 947.141L1248.28 724.506C1247.01 716.501 1241.63 709.755 1234.1 706.747L968.748 600.683C963.668 598.652 958.029 598.5 952.846 600.252L653.7 701.375C647.589 703.441 642.627 707.978 640.023 713.88L541.154 937.998Z" stroke="#CAC8CA" stroke-width="4"/>
<path opacity="0.536232" d="M523.089 923.671C519.06 931.698 520.074 941.336 525.683 948.351L677.254 1137.89C681.292 1142.94 687.269 1146.06 693.72 1146.48L1004.52 1166.77C1010.01 1167.12 1015.45 1165.5 1019.84 1162.2L1245.47 992.555C1251.93 987.698 1255.37 979.806 1254.52 971.767L1231.13 749.231C1230.29 741.193 1225.29 734.188 1217.96 730.78L961.988 611.755C957 609.436 951.347 608.981 946.053 610.473L646.26 694.935C640.038 696.688 634.84 700.979 631.94 706.757L523.089 923.671Z" stroke="#CAC8CA" stroke-width="4"/>
<path opacity="0.550725" d="M506.101 909.782C501.702 917.56 502.206 927.182 507.394 934.458L646.979 1130.22C650.74 1135.5 656.552 1138.94 662.986 1139.71L967.979 1176.04C973.47 1176.69 979.013 1175.35 983.592 1172.25L1214.49 1015.96C1221.16 1011.44 1224.99 1003.76 1224.56 995.711L1212.94 773.9C1212.52 765.851 1207.91 758.609 1200.8 754.813L954.834 623.519C949.956 620.915 944.303 620.155 938.91 621.379L639.386 689.392C633.067 690.826 627.647 694.859 624.458 700.499L506.101 909.782Z" stroke="#CAC8CA" stroke-width="4"/>
<path opacity="0.565217" d="M490.15 896.39C485.397 903.901 485.397 913.479 490.15 920.99L617.52 1122.25C620.992 1127.74 626.621 1131.5 633.019 1132.61L931.387 1184.43C936.865 1185.38 942.502 1184.32 947.255 1181.43L1182.65 1038.59C1189.52 1034.42 1193.71 1026.96 1193.71 1018.93V798.454C1193.71 790.416 1189.52 782.961 1182.65 778.791L947.255 635.946C942.502 633.061 936.865 631.996 931.387 632.948L633.019 684.769C626.621 685.88 620.992 689.644 617.52 695.13L490.15 896.39Z" stroke="#CAC8CA" stroke-width="4"/>
<path opacity="0.57971" d="M475.198 883.546C470.106 890.774 469.608 900.281 473.916 908.001L588.882 1114.02C592.054 1119.7 597.483 1123.77 603.826 1125.23L894.794 1191.95C900.243 1193.2 905.961 1192.42 910.878 1189.76L1150 1060.39C1157.05 1056.58 1161.61 1049.37 1162.03 1041.37L1173.48 822.838C1173.9 814.834 1170.12 807.189 1163.51 802.66L939.218 649.008C934.606 645.848 929 644.477 923.45 645.15L627.102 681.089C620.642 681.872 614.817 685.356 611.069 690.676L475.198 883.546Z" stroke="#CAC8CA" stroke-width="4"/>
<path opacity="0.594203" d="M461.199 871.302C455.786 878.231 454.797 887.639 458.651 895.542L561.072 1105.57C563.931 1111.44 569.144 1115.81 575.414 1117.6L858.25 1198.59C863.655 1200.14 869.44 1199.65 874.511 1197.22L1116.61 1081.34C1123.82 1077.89 1128.72 1070.94 1129.56 1063L1152.26 846.998C1153.09 839.05 1149.74 831.238 1143.41 826.365L930.694 662.676C926.238 659.247 920.68 657.569 915.071 657.959L621.579 678.369C615.073 678.822 609.065 682.015 605.05 687.154L461.199 871.302Z" stroke="#CAC8CA" stroke-width="4"/>
<path opacity="0.608696" d="M448.108 859.705C442.392 866.321 440.922 875.606 444.313 883.664L534.089 1096.97C536.625 1102.99 541.604 1107.65 547.783 1109.79L821.802 1204.37C827.147 1206.21 832.985 1206.03 838.2 1203.84L1082.53 1101.39C1089.88 1098.31 1095.11 1091.64 1096.36 1083.78L1130.07 870.88C1131.32 863.011 1128.41 855.058 1122.37 849.857L921.656 676.918C917.372 673.227 911.878 671.244 906.224 671.347L616.39 676.624C609.854 676.743 603.678 679.637 599.404 684.583L448.108 859.705Z" stroke="#CAC8CA" stroke-width="4"/>
<path opacity="0.623188" d="M435.876 848.799C429.875 855.089 427.934 864.224 430.857 872.41L507.932 1088.24C510.135 1094.41 514.865 1099.35 520.935 1101.82L785.498 1209.3C790.768 1211.44 796.644 1211.55 801.991 1209.61L1047.82 1120.52C1055.29 1117.81 1060.83 1111.44 1062.48 1103.67L1106.96 894.434C1108.61 886.666 1106.14 878.595 1100.42 873.086L912.077 691.702C907.98 687.757 902.567 685.469 896.882 685.281L611.475 675.862C604.927 675.646 598.597 678.234 594.074 682.974L435.876 848.799Z" stroke="#CAC8CA" stroke-width="4"/>
<path opacity="0.637681" d="M424.452 838.625C418.186 844.576 415.785 853.537 418.236 861.824L482.596 1079.45C484.459 1085.75 488.923 1090.95 494.866 1093.74L749.384 1213.39C754.563 1215.83 760.463 1216.24 765.933 1214.56L1012.54 1138.69C1020.11 1136.36 1025.95 1130.31 1028 1122.66L1082.94 917.615C1084.99 909.968 1082.96 901.805 1077.57 896.006L901.935 706.994C898.04 702.802 892.721 700.213 887.019 699.732L606.775 676.094C600.231 675.542 593.764 677.813 589.003 682.336L424.452 838.625Z" stroke="#CAC8CA" stroke-width="4"/>
<path opacity="0.652174" d="M413.784 829.22C407.273 834.822 404.425 843.586 406.4 851.945L458.075 1070.63C459.589 1077.04 463.774 1082.49 469.572 1085.6L713.507 1216.67C718.579 1219.39 724.488 1220.12 730.068 1218.7L976.757 1155.89C984.404 1153.95 990.519 1148.22 992.957 1140.71L1058.05 940.373C1060.49 932.869 1058.91 924.638 1053.87 918.569L891.207 722.76C887.529 718.331 882.322 715.443 876.617 714.666L602.231 677.32C595.709 676.432 589.119 678.381 584.13 682.674L413.784 829.22Z" stroke="#CAC8CA" stroke-width="4"/>
<path opacity="0.666667" d="M403.818 820.62C397.081 825.863 393.802 834.405 395.301 842.809L434.359 1061.83C435.518 1068.32 439.409 1074.01 445.045 1077.44L677.908 1219.14C682.857 1222.16 688.761 1223.19 694.439 1222.04L940.526 1172.1C948.232 1170.54 954.606 1165.15 957.425 1157.8L1032.33 962.668C1035.15 955.326 1034.02 947.054 1029.34 940.735L879.874 738.962C876.426 734.307 871.347 731.124 865.654 730.05L597.784 679.542C591.3 678.32 584.604 679.94 579.397 683.992L403.818 820.62Z" stroke="#CAC8CA" stroke-width="4"/>
<path opacity="0.681159" d="M394.498 812.853C387.556 817.727 383.86 826.028 384.883 834.45L411.437 1053.09C412.235 1059.65 415.82 1065.56 421.277 1069.29L642.632 1220.84C647.443 1224.14 653.326 1225.48 659.089 1224.6L903.914 1187.3C911.661 1186.12 918.273 1181.08 921.461 1173.92L1005.81 984.458C1009 977.299 1008.33 969.01 1004.02 962.463L867.918 755.565C864.713 750.695 859.778 747.223 854.112 745.851L593.374 682.757C586.946 681.202 580.16 682.488 574.747 686.288L394.498 812.853Z" stroke="#CAC8CA" stroke-width="4"/>
<path opacity="0.695652" d="M385.768 805.948C378.641 810.448 374.546 818.484 375.095 826.894L389.295 1044.45C389.727 1051.07 392.992 1057.18 398.253 1061.21L607.72 1221.79C612.378 1225.36 618.224 1227.01 624.061 1226.41L866.982 1201.48C874.75 1200.69 881.582 1196 885.127 1189.05L978.544 1005.71C982.089 998.748 981.862 990.467 977.941 983.715L855.323 772.535C852.377 767.46 847.602 763.703 841.976 762.034L588.944 686.957C582.589 685.071 575.729 686.019 570.123 689.558L385.768 805.948Z" stroke="#CAC8CA" stroke-width="4"/>
<path opacity="0.710145" d="M377.569 799.927C370.28 804.045 365.803 811.798 365.882 820.17L367.917 1035.96C367.98 1042.61 370.914 1048.9 375.963 1053.22L573.21 1222C577.699 1225.84 583.493 1227.81 589.392 1227.49L829.797 1214.64C837.565 1214.22 844.597 1209.91 848.487 1203.17L950.56 1026.37C954.45 1019.64 954.671 1011.39 951.146 1004.45L842.078 789.83C839.401 784.564 834.801 780.529 829.231 778.562L584.436 692.133C578.17 689.92 571.254 690.526 565.468 693.794L377.569 799.927Z" stroke="#CAC8CA" stroke-width="4"/>
<path opacity="0.724638" d="M369.844 794.81C362.412 798.541 357.572 805.992 357.186 814.299L347.285 1027.65C346.976 1034.31 349.567 1040.77 354.388 1045.37L539.142 1221.52C543.446 1225.62 549.173 1227.9 555.12 1227.87L792.419 1226.76C800.169 1226.72 807.38 1222.79 811.601 1216.29L921.905 1046.43C926.126 1039.93 926.79 1031.75 923.671 1024.65L828.168 807.416C825.775 801.971 821.365 797.666 815.865 795.403L579.796 698.27C573.635 695.735 566.678 695.996 560.725 698.985L369.844 794.81Z" stroke="#CAC8CA" stroke-width="4"/>
<path opacity="0.73913" d="M362.531 790.614C354.979 793.954 349.797 801.086 348.954 809.3L327.377 1019.57C326.696 1026.21 328.935 1032.82 333.513 1037.68L505.548 1220.37C509.654 1224.73 515.299 1227.31 521.282 1227.58L754.914 1237.85C762.626 1238.19 769.994 1234.64 774.532 1228.4L892.625 1065.85C897.162 1059.61 898.264 1051.5 895.558 1044.27L813.588 825.252C811.489 819.644 807.284 815.074 801.869 812.517L574.965 705.354C568.927 702.502 561.947 702.415 555.84 705.117L362.531 790.614Z" stroke="#CAC8CA" stroke-width="4"/>
<path opacity="0.753623" d="M355.572 787.348C347.921 790.295 342.418 797.092 341.126 805.188L308.174 1011.74C307.119 1018.35 308.997 1025.09 313.318 1030.21L472.467 1218.58C476.359 1223.18 481.905 1226.08 487.911 1226.64L717.342 1247.92C724.998 1248.63 732.503 1245.47 737.341 1239.49L862.764 1084.61C867.603 1078.63 869.137 1070.64 866.85 1063.29L798.328 843.302C796.534 837.544 792.551 832.72 787.235 829.871L569.894 713.364C563.993 710.201 557.008 709.766 550.761 712.172L355.572 787.348Z" stroke="#CAC8CA" stroke-width="4"/>
<path opacity="0.768116" d="M348.908 785.025C341.18 787.577 335.376 794.022 333.646 801.975L289.65 1004.21C288.223 1010.76 289.732 1017.62 293.781 1022.97L439.926 1216.18C443.591 1221.03 449.024 1224.23 455.039 1225.08L679.768 1256.97C687.348 1258.04 694.968 1255.28 700.091 1249.59L832.371 1102.67C837.495 1096.98 839.45 1089.12 837.588 1081.69L782.385 861.526C780.907 855.633 777.159 850.564 771.958 847.426L564.526 722.277C558.78 718.81 551.805 718.026 545.433 720.13L348.908 785.025Z" stroke="#CAC8CA" stroke-width="4"/>
<path opacity="0.782609" d="M342.479 783.646C334.695 785.803 328.613 791.885 326.456 799.669L271.778 996.997C269.982 1003.48 271.114 1010.43 274.878 1016L407.959 1213.22C411.382 1218.3 416.686 1221.79 422.697 1222.95L642.248 1265.01C649.736 1266.44 657.449 1264.07 662.84 1258.68L801.492 1120.03C806.883 1114.64 809.252 1106.93 807.818 1099.44L765.756 879.887C764.604 873.876 761.105 868.572 756.032 865.149L558.814 732.068C553.237 728.304 546.291 727.171 539.807 728.968L342.479 783.646Z" stroke="#CAC8CA" stroke-width="4"/>
<path opacity="0.797101" d="M336.226 783.213C328.407 784.976 322.069 790.682 319.499 798.274L254.534 990.144C252.371 996.533 253.121 1003.55 256.587 1009.34L376.592 1209.73C379.76 1215.02 384.92 1218.81 390.912 1220.27L604.847 1272.05C612.224 1273.84 620.007 1271.87 625.648 1266.79L770.175 1136.66C775.816 1131.58 778.588 1124.04 777.583 1116.52L748.441 898.346C747.624 892.234 744.388 886.706 739.458 883.002L552.708 742.708C547.315 738.657 540.415 737.177 533.835 738.661L336.226 783.213Z" stroke="#CAC8CA" stroke-width="4"/>
<path opacity="0.811594" d="M330.089 783.726C322.256 785.097 315.688 790.416 312.718 797.792L237.888 983.676C235.363 989.95 235.726 997.018 238.882 1003L345.85 1205.74C348.749 1211.24 353.75 1215.33 359.712 1217.08L567.619 1278.13C574.868 1280.25 582.701 1278.69 588.573 1273.93L738.47 1152.55C744.342 1147.79 747.504 1140.46 746.929 1132.92L730.44 916.867C729.967 910.671 727.007 904.929 722.234 900.95L546.163 754.168C540.968 749.837 534.131 748.012 527.469 749.178L330.089 783.726Z" stroke="#CAC8CA" stroke-width="4"/>
<path opacity="0.826087" d="M324.011 785.175C316.186 786.157 309.409 791.081 306.056 798.22L221.81 977.622C218.928 983.759 218.901 990.855 221.736 997.015L315.756 1201.3C318.375 1206.99 323.201 1211.36 329.119 1213.41L530.622 1283.24C537.727 1285.71 545.588 1284.54 551.672 1280.12L706.425 1167.68C712.508 1163.26 716.047 1156.15 715.901 1148.63L711.758 935.411C711.636 929.149 708.966 923.207 704.364 918.958L539.132 766.412C534.151 761.813 527.393 759.646 520.666 760.49L324.011 785.175Z" stroke="#CAC8CA" stroke-width="4"/>
<path opacity="0.84058" d="M317.935 787.555C310.137 788.153 303.178 792.673 299.46 799.553L206.269 972.004C203.037 977.985 202.617 985.089 205.12 991.409L286.332 1196.44C288.657 1202.31 293.294 1206.97 299.154 1209.32L493.91 1287.43C500.856 1290.22 508.723 1289.45 514.999 1285.38L674.088 1182.06C680.364 1177.99 684.265 1171.11 684.545 1163.63L692.399 953.943C692.636 947.633 690.268 941.503 685.851 936.992L531.576 779.406C526.82 774.548 520.159 772.043 513.381 772.563L317.935 787.555Z" stroke="#CAC8CA" stroke-width="4"/>
<path opacity="0.855072" d="M311.806 790.85C304.056 791.07 296.937 795.179 292.872 801.782L191.233 966.846C187.66 972.65 186.844 979.74 189.006 986.203L257.595 1191.21C259.615 1197.25 264.047 1202.18 269.836 1204.83L457.538 1290.72C464.308 1293.82 472.16 1293.45 478.608 1289.73L641.51 1195.67C647.958 1191.95 652.205 1185.34 652.908 1177.92L672.373 972.424C672.973 966.086 670.919 959.783 666.701 955.015L523.453 793.111C518.936 788.006 512.388 785.168 505.575 785.361L311.806 790.85Z" stroke="#CAC8CA" stroke-width="4"/>
<path opacity="0.869565" d="M305.568 795.047C297.885 794.894 290.634 798.589 286.241 804.894L176.67 962.17C172.764 967.777 171.552 974.831 173.365 981.42L229.562 1185.65C231.265 1191.84 235.479 1197.04 241.184 1199.98L421.553 1293.14C428.134 1296.54 435.949 1296.56 442.549 1293.2L608.739 1208.52C615.339 1205.16 619.915 1198.82 621.034 1191.5L651.687 990.822C652.656 984.476 650.929 978.012 646.922 972.995L514.727 807.487C510.462 802.148 504.044 798.982 497.211 798.846L305.568 795.047Z" stroke="#CAC8CA" stroke-width="4"/>
<path opacity="0.884058" d="M299.17 800.123C291.573 799.606 284.212 802.884 279.513 808.875L162.545 957.992C158.316 963.383 156.71 970.379 158.166 977.074L202.246 1179.8C203.622 1186.13 207.602 1191.58 213.209 1194.83L386.006 1294.72C392.383 1298.41 400.142 1298.82 406.872 1295.82L575.823 1220.6C582.553 1217.61 587.44 1211.57 588.968 1204.36L630.353 1009.1C631.696 1002.77 630.304 996.157 626.522 990.9L505.363 822.492C501.362 816.931 495.088 813.443 488.252 812.978L299.17 800.123Z" stroke="#CAC8CA" stroke-width="4"/>
<path opacity="0.898551" d="M292.558 806.059C285.066 805.187 277.622 808.044 272.638 813.706L148.823 954.331C144.284 959.487 142.286 966.403 143.378 973.185L175.658 1173.7C176.696 1180.16 180.43 1185.86 185.925 1189.39L350.942 1295.51C357.104 1299.47 364.785 1300.26 371.624 1297.63L542.808 1231.92C549.648 1229.3 554.827 1223.57 556.755 1216.5L608.383 1027.23C610.103 1020.92 609.06 1014.19 605.515 1008.7L495.33 838.083C491.603 832.312 485.491 828.51 478.667 827.716L292.558 806.059Z" stroke="#CAC8CA" stroke-width="4"/>
<path opacity="0.913043" d="M285.686 812.827C278.316 811.609 270.813 814.047 265.566 819.365L135.471 951.199C130.633 956.102 128.247 962.916 128.969 969.766L149.805 1167.41C150.497 1173.96 153.969 1179.91 159.34 1183.73L316.403 1295.53C322.337 1299.75 329.922 1300.91 336.849 1298.66L509.742 1242.49C516.669 1240.24 522.121 1234.84 524.439 1227.93L585.794 1045.17C587.893 1038.92 587.207 1032.07 583.912 1026.36L484.599 854.214C481.157 848.248 475.222 844.138 468.426 843.016L285.686 812.827Z" stroke="#CAC8CA" stroke-width="4"/>
<path opacity="0.927536" d="M278.505 820.402C271.274 818.85 263.737 820.87 258.251 825.83L122.453 948.609C117.33 953.241 114.559 959.93 114.907 966.828L124.694 1160.95C125.029 1167.6 128.228 1173.77 133.464 1177.88L282.432 1294.83C288.126 1299.3 295.594 1300.83 302.587 1298.95L476.671 1252.31C483.664 1250.43 489.367 1245.38 492.064 1238.66L562.601 1062.89C565.08 1056.72 564.762 1049.77 561.728 1043.85L473.144 870.838C469.997 864.691 464.252 860.284 457.5 858.834L278.505 820.402Z" stroke="#CAC8CA" stroke-width="4"/>
<path opacity="0.942029" d="M270.97 828.753C263.895 826.877 256.349 828.481 250.648 833.072L109.733 946.571C104.34 950.915 101.192 957.458 101.161 964.383L100.329 1154.38C100.3 1161.1 103.211 1167.49 108.297 1171.88L249.065 1293.45C254.51 1298.15 261.842 1300.04 268.879 1298.54L443.639 1261.4C450.676 1259.9 456.608 1255.2 459.67 1248.69L538.821 1080.37C541.681 1074.29 541.739 1067.26 538.979 1061.14L460.942 887.909C458.098 881.595 452.56 876.898 445.866 875.124L270.97 828.753Z" stroke="#CAC8CA" stroke-width="4"/>
<path opacity="0.956522" d="M263.038 837.845C256.135 835.659 248.604 836.852 242.714 841.064L97.2766 945.092C91.6291 949.131 88.1083 955.506 87.6973 962.438L76.7115 1147.73C76.3099 1154.51 78.9201 1161.11 83.8435 1165.78L216.336 1291.44C221.522 1296.36 228.701 1298.59 235.761 1297.47L410.688 1269.77C417.748 1268.65 423.887 1264.31 427.3 1258.03L514.476 1097.57C517.715 1091.61 518.156 1084.52 515.681 1078.21L447.974 905.375C445.441 898.91 440.123 893.935 433.503 891.839L263.038 837.845Z" stroke="#CAC8CA" stroke-width="4"/>
<path opacity="0.971014" d="M254.671 847.646C247.953 845.162 240.461 845.948 234.406 849.775L85.0478 944.176C79.1625 947.896 75.2788 954.081 74.4856 960.998L53.8385 1141.06C53.0577 1147.87 55.3544 1154.67 60.1034 1159.61L184.278 1288.85C189.197 1293.97 196.205 1296.53 203.266 1295.79L377.861 1277.44C384.922 1276.69 391.245 1272.73 394.992 1266.7L489.583 1114.47C493.201 1108.65 494.033 1101.52 491.854 1095.02L434.221 923.188C432.007 916.588 426.922 911.345 420.392 908.93L254.671 847.646Z" stroke="#CAC8CA" stroke-width="4"/>
<path opacity="0.985507" d="M245.829 858.115C239.311 855.347 231.88 855.737 225.687 859.171L73.01 943.828C66.905 947.213 62.6674 953.188 61.4917 960.069L31.7055 1134.4C30.5392 1141.23 32.5113 1148.22 37.0738 1153.43L152.918 1285.72C157.563 1291.02 164.385 1293.9 171.426 1293.53L345.197 1284.43C352.238 1284.06 358.721 1280.48 362.786 1274.72L464.167 1131.04C468.16 1125.38 469.391 1118.23 467.518 1111.56L419.672 941.298C417.783 934.577 412.944 929.078 406.519 926.349L245.829 858.115Z" stroke="#CAC8CA" stroke-width="4"/>
<path d="M236.479 869.215C230.173 866.178 222.827 866.178 216.521 869.215L61.1299 944.047C54.8236 947.084 50.2431 952.828 48.6855 959.652L10.3076 1127.8C8.75011 1134.62 10.385 1141.78 14.749 1147.26L122.282 1282.1C126.646 1287.57 133.265 1290.76 140.265 1290.76H312.735C319.735 1290.76 326.354 1287.57 330.718 1282.1L438.251 1147.26C442.615 1141.78 444.25 1134.62 442.692 1127.8L404.314 959.652C402.757 952.828 398.176 947.084 391.87 944.047L236.479 869.215Z" stroke="#CAC8CA" stroke-width="4"/>
</svg>
