<svg width="723" height="268" viewBox="0 0 723 268" fill="none" xmlns="http://www.w3.org/2000/svg">
<path d="M25.63 76.85V92.47H50.82V106.99H25.63V123.93H54.12V139H6.82V61.78H54.12V76.85H25.63ZM60.3917 108.31C60.3917 101.93 61.6751 96.3567 64.2417 91.59C66.8817 86.8233 70.5117 83.1567 75.1317 80.59C79.8251 78.0233 85.1784 76.74 91.1917 76.74C98.8917 76.74 105.308 78.7567 110.442 82.79C115.648 86.8233 119.058 92.5067 120.672 99.84H100.652C98.9651 95.1467 95.7017 92.8 90.8617 92.8C87.4151 92.8 84.6651 94.1567 82.6117 96.87C80.5584 99.51 79.5317 103.323 79.5317 108.31C79.5317 113.297 80.5584 117.147 82.6117 119.86C84.6651 122.5 87.4151 123.82 90.8617 123.82C95.7017 123.82 98.9651 121.473 100.652 116.78H120.672C119.058 123.967 115.648 129.613 110.442 133.72C105.235 137.827 98.8184 139.88 91.1917 139.88C85.1784 139.88 79.8251 138.597 75.1317 136.03C70.5117 133.463 66.8817 129.797 64.2417 125.03C61.6751 120.263 60.3917 114.69 60.3917 108.31ZM156.473 139.88C150.46 139.88 145.033 138.597 140.193 136.03C135.427 133.463 131.65 129.797 128.863 125.03C126.15 120.263 124.793 114.69 124.793 108.31C124.793 102.003 126.187 96.4667 128.973 91.7C131.76 86.86 135.573 83.1567 140.413 80.59C145.253 78.0233 150.68 76.74 156.693 76.74C162.707 76.74 168.133 78.0233 172.973 80.59C177.813 83.1567 181.627 86.86 184.413 91.7C187.2 96.4667 188.593 102.003 188.593 108.31C188.593 114.617 187.163 120.19 184.303 125.03C181.517 129.797 177.667 133.463 172.753 136.03C167.913 138.597 162.487 139.88 156.473 139.88ZM156.473 123.6C160.067 123.6 163.11 122.28 165.603 119.64C168.17 117 169.453 113.223 169.453 108.31C169.453 103.397 168.207 99.62 165.713 96.98C163.293 94.34 160.287 93.02 156.693 93.02C153.027 93.02 149.983 94.34 147.563 96.98C145.143 99.5467 143.933 103.323 143.933 108.31C143.933 113.223 145.107 117 147.453 119.64C149.873 122.28 152.88 123.6 156.473 123.6ZM265.452 139H246.642L215.182 91.37V139H196.372V61.78H215.182L246.642 109.63V61.78H265.452V139ZM304.827 139.88C298.814 139.88 293.387 138.597 288.547 136.03C283.781 133.463 280.004 129.797 277.217 125.03C274.504 120.263 273.147 114.69 273.147 108.31C273.147 102.003 274.541 96.4667 277.327 91.7C280.114 86.86 283.927 83.1567 288.767 80.59C293.607 78.0233 299.034 76.74 305.047 76.74C311.061 76.74 316.487 78.0233 321.327 80.59C326.167 83.1567 329.981 86.86 332.767 91.7C335.554 96.4667 336.947 102.003 336.947 108.31C336.947 114.617 335.517 120.19 332.657 125.03C329.871 129.797 326.021 133.463 321.107 136.03C316.267 138.597 310.841 139.88 304.827 139.88ZM304.827 123.6C308.421 123.6 311.464 122.28 313.957 119.64C316.524 117 317.807 113.223 317.807 108.31C317.807 103.397 316.561 99.62 314.067 96.98C311.647 94.34 308.641 93.02 305.047 93.02C301.381 93.02 298.337 94.34 295.917 96.98C293.497 99.5467 292.287 103.323 292.287 108.31C292.287 113.223 293.461 117 295.807 119.64C298.227 122.28 301.234 123.6 304.827 123.6ZM354.186 71.24C350.886 71.24 348.173 70.2867 346.046 68.38C343.993 66.4 342.966 63.98 342.966 61.12C342.966 58.1867 343.993 55.7667 346.046 53.86C348.173 51.88 350.886 50.89 354.186 50.89C357.413 50.89 360.053 51.88 362.106 53.86C364.233 55.7667 365.296 58.1867 365.296 61.12C365.296 63.98 364.233 66.4 362.106 68.38C360.053 70.2867 357.413 71.24 354.186 71.24ZM363.536 77.62V139H344.726V77.62H363.536ZM399.938 139.88C394.584 139.88 389.818 138.963 385.638 137.13C381.458 135.297 378.158 132.803 375.738 129.65C373.318 126.423 371.961 122.83 371.668 118.87H390.258C390.478 120.997 391.468 122.72 393.228 124.04C394.988 125.36 397.151 126.02 399.718 126.02C402.064 126.02 403.861 125.58 405.108 124.7C406.428 123.747 407.088 122.537 407.088 121.07C407.088 119.31 406.171 118.027 404.338 117.22C402.504 116.34 399.534 115.387 395.428 114.36C391.028 113.333 387.361 112.27 384.428 111.17C381.494 109.997 378.964 108.2 376.838 105.78C374.711 103.287 373.648 99.95 373.648 95.77C373.648 92.25 374.601 89.06 376.508 86.2C378.488 83.2667 381.348 80.9567 385.088 79.27C388.901 77.5833 393.411 76.74 398.618 76.74C406.318 76.74 412.368 78.6467 416.768 82.46C421.241 86.2733 423.808 91.3333 424.468 97.64H407.088C406.794 95.5133 405.841 93.8267 404.228 92.58C402.688 91.3333 400.634 90.71 398.068 90.71C395.868 90.71 394.181 91.15 393.008 92.03C391.834 92.8367 391.248 93.9733 391.248 95.44C391.248 97.2 392.164 98.52 393.998 99.4C395.904 100.28 398.838 101.16 402.798 102.04C407.344 103.213 411.048 104.387 413.908 105.56C416.768 106.66 419.261 108.493 421.388 111.06C423.588 113.553 424.724 116.927 424.798 121.18C424.798 124.773 423.771 128 421.718 130.86C419.738 133.647 416.841 135.847 413.028 137.46C409.288 139.073 404.924 139.88 399.938 139.88ZM491.966 107.32C491.966 109.08 491.856 110.913 491.636 112.82H449.066C449.359 116.633 450.569 119.567 452.696 121.62C454.896 123.6 457.572 124.59 460.726 124.59C465.419 124.59 468.682 122.61 470.516 118.65H490.536C489.509 122.683 487.639 126.313 484.926 129.54C482.286 132.767 478.949 135.297 474.916 137.13C470.882 138.963 466.372 139.88 461.386 139.88C455.372 139.88 450.019 138.597 445.326 136.03C440.632 133.463 436.966 129.797 434.326 125.03C431.686 120.263 430.366 114.69 430.366 108.31C430.366 101.93 431.649 96.3567 434.216 91.59C436.856 86.8233 440.522 83.1567 445.216 80.59C449.909 78.0233 455.299 76.74 461.386 76.74C467.326 76.74 472.606 77.9867 477.226 80.48C481.846 82.9733 485.439 86.53 488.006 91.15C490.646 95.77 491.966 101.16 491.966 107.32ZM472.716 102.37C472.716 99.1433 471.616 96.5767 469.416 94.67C467.216 92.7633 464.466 91.81 461.166 91.81C458.012 91.81 455.336 92.7267 453.136 94.56C451.009 96.3933 449.689 98.9967 449.176 102.37H472.716Z" fill="#3A3A3C"/>
<circle cx="623" cy="100" r="92.5" stroke="#5925DC" stroke-width="15"/>
<mask id="path-3-outside-1_207_18" maskUnits="userSpaceOnUse" x="560" y="64" width="126" height="72" fill="black">
<rect fill="white" x="560" y="64" width="126" height="72"/>
<path d="M587.336 134.672C582.408 134.672 577.992 133.872 574.088 132.272C570.184 130.672 567.048 128.304 564.68 125.168C562.376 122.032 561.16 118.256 561.032 113.84H578.504C578.76 116.336 579.624 118.256 581.096 119.6C582.568 120.88 584.488 121.52 586.856 121.52C589.288 121.52 591.208 120.976 592.616 119.888C594.024 118.736 594.728 117.168 594.728 115.184C594.728 113.52 594.152 112.144 593 111.056C591.912 109.968 590.536 109.072 588.872 108.368C587.272 107.664 584.968 106.864 581.96 105.968C577.608 104.624 574.056 103.28 571.304 101.936C568.552 100.592 566.184 98.608 564.2 95.984C562.216 93.36 561.224 89.936 561.224 85.712C561.224 79.44 563.496 74.544 568.04 71.024C572.584 67.44 578.504 65.648 585.8 65.648C593.224 65.648 599.208 67.44 603.752 71.024C608.296 74.544 610.728 79.472 611.048 85.808H593.288C593.16 83.632 592.36 81.936 590.888 80.72C589.416 79.44 587.528 78.8 585.224 78.8C583.24 78.8 581.64 79.344 580.424 80.432C579.208 81.456 578.6 82.96 578.6 84.944C578.6 87.12 579.624 88.816 581.672 90.032C583.72 91.248 586.92 92.56 591.272 93.968C595.624 95.44 599.144 96.848 601.832 98.192C604.584 99.536 606.952 101.488 608.936 104.048C610.92 106.608 611.912 109.904 611.912 113.936C611.912 117.776 610.92 121.264 608.936 124.4C607.016 127.536 604.2 130.032 600.488 131.888C596.776 133.744 592.392 134.672 587.336 134.672ZM664.831 87.92C663.615 85.68 661.855 83.984 659.551 82.832C657.311 81.616 654.655 81.008 651.583 81.008C646.271 81.008 642.015 82.768 638.815 86.288C635.615 89.744 634.015 94.384 634.015 100.208C634.015 106.416 635.679 111.28 639.007 114.8C642.399 118.256 647.039 119.984 652.927 119.984C656.959 119.984 660.351 118.96 663.103 116.912C665.919 114.864 667.967 111.92 669.247 108.08H648.415V95.984H684.127V111.248C682.911 115.344 680.831 119.152 677.887 122.672C675.007 126.192 671.327 129.04 666.847 131.216C662.367 133.392 657.311 134.48 651.679 134.48C645.023 134.48 639.071 133.04 633.823 130.16C628.639 127.216 624.575 123.152 621.631 117.968C618.751 112.784 617.311 106.864 617.311 100.208C617.311 93.552 618.751 87.632 621.631 82.448C624.575 77.2 628.639 73.136 633.823 70.256C639.007 67.312 644.927 65.84 651.583 65.84C659.647 65.84 666.431 67.792 671.935 71.696C677.503 75.6 681.183 81.008 682.975 87.92H664.831Z"/>
</mask>
<path d="M587.336 134.672C582.408 134.672 577.992 133.872 574.088 132.272C570.184 130.672 567.048 128.304 564.68 125.168C562.376 122.032 561.16 118.256 561.032 113.84H578.504C578.76 116.336 579.624 118.256 581.096 119.6C582.568 120.88 584.488 121.52 586.856 121.52C589.288 121.52 591.208 120.976 592.616 119.888C594.024 118.736 594.728 117.168 594.728 115.184C594.728 113.52 594.152 112.144 593 111.056C591.912 109.968 590.536 109.072 588.872 108.368C587.272 107.664 584.968 106.864 581.96 105.968C577.608 104.624 574.056 103.28 571.304 101.936C568.552 100.592 566.184 98.608 564.2 95.984C562.216 93.36 561.224 89.936 561.224 85.712C561.224 79.44 563.496 74.544 568.04 71.024C572.584 67.44 578.504 65.648 585.8 65.648C593.224 65.648 599.208 67.44 603.752 71.024C608.296 74.544 610.728 79.472 611.048 85.808H593.288C593.16 83.632 592.36 81.936 590.888 80.72C589.416 79.44 587.528 78.8 585.224 78.8C583.24 78.8 581.64 79.344 580.424 80.432C579.208 81.456 578.6 82.96 578.6 84.944C578.6 87.12 579.624 88.816 581.672 90.032C583.72 91.248 586.92 92.56 591.272 93.968C595.624 95.44 599.144 96.848 601.832 98.192C604.584 99.536 606.952 101.488 608.936 104.048C610.92 106.608 611.912 109.904 611.912 113.936C611.912 117.776 610.92 121.264 608.936 124.4C607.016 127.536 604.2 130.032 600.488 131.888C596.776 133.744 592.392 134.672 587.336 134.672ZM664.831 87.92C663.615 85.68 661.855 83.984 659.551 82.832C657.311 81.616 654.655 81.008 651.583 81.008C646.271 81.008 642.015 82.768 638.815 86.288C635.615 89.744 634.015 94.384 634.015 100.208C634.015 106.416 635.679 111.28 639.007 114.8C642.399 118.256 647.039 119.984 652.927 119.984C656.959 119.984 660.351 118.96 663.103 116.912C665.919 114.864 667.967 111.92 669.247 108.08H648.415V95.984H684.127V111.248C682.911 115.344 680.831 119.152 677.887 122.672C675.007 126.192 671.327 129.04 666.847 131.216C662.367 133.392 657.311 134.48 651.679 134.48C645.023 134.48 639.071 133.04 633.823 130.16C628.639 127.216 624.575 123.152 621.631 117.968C618.751 112.784 617.311 106.864 617.311 100.208C617.311 93.552 618.751 87.632 621.631 82.448C624.575 77.2 628.639 73.136 633.823 70.256C639.007 67.312 644.927 65.84 651.583 65.84C659.647 65.84 666.431 67.792 671.935 71.696C677.503 75.6 681.183 81.008 682.975 87.92H664.831Z" fill="#5925DC"/>
<path d="M574.088 132.272L573.709 133.197V133.197L574.088 132.272ZM564.68 125.168L563.874 125.76L563.882 125.771L564.68 125.168ZM561.032 113.84V112.84H560.003L560.032 113.869L561.032 113.84ZM578.504 113.84L579.499 113.738L579.407 112.84H578.504V113.84ZM581.096 119.6L580.422 120.338L580.431 120.347L580.44 120.355L581.096 119.6ZM592.616 119.888L593.227 120.679L593.238 120.671L593.249 120.662L592.616 119.888ZM593 111.056L592.293 111.763L592.303 111.773L592.313 111.783L593 111.056ZM588.872 108.368L588.469 109.283L588.476 109.286L588.482 109.289L588.872 108.368ZM581.96 105.968L581.665 106.924L581.675 106.926L581.96 105.968ZM564.2 95.984L564.998 95.3809V95.3809L564.2 95.984ZM568.04 71.024L568.652 71.8146L568.659 71.8092L568.04 71.024ZM603.752 71.024L603.133 71.8092L603.14 71.8145L603.752 71.024ZM611.048 85.808V86.808H612.1L612.047 85.7576L611.048 85.808ZM593.288 85.808L592.29 85.8667L592.345 86.808H593.288V85.808ZM590.888 80.72L590.232 81.4746L590.241 81.4829L590.251 81.491L590.888 80.72ZM580.424 80.432L581.068 81.1969L581.08 81.1872L581.091 81.1772L580.424 80.432ZM581.672 90.032L582.183 89.1721V89.1721L581.672 90.032ZM591.272 93.968L591.592 93.0206L591.58 93.0166L591.272 93.968ZM601.832 98.192L601.385 99.0865L601.393 99.0906L601.832 98.192ZM608.936 104.048L608.146 104.661V104.661L608.936 104.048ZM608.936 124.4L608.091 123.865L608.087 123.872L608.083 123.878L608.936 124.4ZM600.488 131.888L600.041 130.994V130.994L600.488 131.888ZM587.336 134.672V133.672C582.517 133.672 578.232 132.89 574.467 131.347L574.088 132.272L573.709 133.197C577.752 134.854 582.299 135.672 587.336 135.672V134.672ZM574.088 132.272L574.467 131.347C570.717 129.81 567.73 127.548 565.478 124.565L564.68 125.168L563.882 125.771C566.366 129.06 569.651 131.534 573.709 133.197L574.088 132.272ZM564.68 125.168L565.486 124.576C563.318 121.625 562.155 118.052 562.032 113.811L561.032 113.84L560.032 113.869C560.165 118.46 561.434 122.439 563.874 125.76L564.68 125.168ZM561.032 113.84V114.84H578.504V113.84V112.84H561.032V113.84ZM578.504 113.84L577.509 113.942C577.784 116.617 578.725 118.789 580.422 120.338L581.096 119.6L581.77 118.862C580.523 117.723 579.736 116.055 579.499 113.738L578.504 113.84ZM581.096 119.6L580.44 120.355C582.131 121.825 584.301 122.52 586.856 122.52V121.52V120.52C584.675 120.52 583.005 119.935 581.752 118.845L581.096 119.6ZM586.856 121.52V122.52C589.429 122.52 591.59 121.945 593.227 120.679L592.616 119.888L592.005 119.097C590.826 120.007 589.147 120.52 586.856 120.52V121.52ZM592.616 119.888L593.249 120.662C594.912 119.301 595.728 117.437 595.728 115.184H594.728H593.728C593.728 116.899 593.136 118.171 591.983 119.114L592.616 119.888ZM594.728 115.184H595.728C595.728 113.26 595.05 111.616 593.687 110.329L593 111.056L592.313 111.783C593.254 112.672 593.728 113.78 593.728 115.184H594.728ZM593 111.056L593.707 110.349C592.514 109.155 591.024 108.193 589.262 107.447L588.872 108.368L588.482 109.289C590.048 109.951 591.31 110.781 592.293 111.763L593 111.056ZM588.872 108.368L589.275 107.453C587.618 106.724 585.267 105.91 582.245 105.01L581.96 105.968L581.675 106.926C584.669 107.818 586.926 108.604 588.469 109.283L588.872 108.368ZM581.96 105.968L582.255 105.013C577.931 103.677 574.432 102.351 571.743 101.037L571.304 101.936L570.865 102.835C573.68 104.209 577.285 105.571 581.665 106.923L581.96 105.968ZM571.304 101.936L571.743 101.037C569.142 99.7674 566.894 97.8891 564.998 95.3809L564.2 95.984L563.402 96.5871C565.474 99.3269 567.962 101.417 570.865 102.835L571.304 101.936ZM564.2 95.984L564.998 95.3809C563.178 92.9744 562.224 89.7806 562.224 85.712H561.224H560.224C560.224 90.0914 561.254 93.7456 563.402 96.5871L564.2 95.984ZM561.224 85.712H562.224C562.224 79.7168 564.377 75.1261 568.652 71.8145L568.04 71.024L567.428 70.2334C562.615 73.9619 560.224 79.1632 560.224 85.712H561.224ZM568.04 71.024L568.659 71.8092C572.985 68.3972 578.669 66.648 585.8 66.648V65.648V64.648C578.339 64.648 572.183 66.4828 567.421 70.2388L568.04 71.024ZM585.8 65.648V66.648C593.064 66.648 598.81 68.3995 603.133 71.8092L603.752 71.024L604.371 70.2388C599.606 66.4805 593.384 64.648 585.8 64.648V65.648ZM603.752 71.024L603.14 71.8145C607.427 75.1361 609.742 79.7797 610.049 85.8584L611.048 85.808L612.047 85.7576C611.714 79.1643 609.165 73.9519 604.364 70.2334L603.752 71.024ZM611.048 85.808V84.808H593.288V85.808V86.808H611.048V85.808ZM593.288 85.808L594.286 85.7493C594.145 83.3392 593.242 81.3677 591.525 79.949L590.888 80.72L590.251 81.491C591.478 82.5043 592.175 83.9248 592.29 85.8667L593.288 85.808ZM590.888 80.72L591.544 79.9654C589.858 78.4994 587.723 77.8 585.224 77.8V78.8V79.8C587.333 79.8 588.974 80.3806 590.232 81.4746L590.888 80.72ZM585.224 78.8V77.8C583.05 77.8 581.194 78.401 579.757 79.6868L580.424 80.432L581.091 81.1772C582.086 80.287 583.43 79.8 585.224 79.8V78.8ZM580.424 80.432L579.78 79.6671C578.284 80.927 577.6 82.7446 577.6 84.944H578.6H579.6C579.6 83.1754 580.132 81.985 581.068 81.1969L580.424 80.432ZM578.6 84.944H577.6C577.6 87.5114 578.845 89.5163 581.161 90.8919L581.672 90.032L582.183 89.1721C580.403 88.1157 579.6 86.7286 579.6 84.944H578.6ZM581.672 90.032L581.161 90.8918C583.308 92.1662 586.594 93.5054 590.964 94.9194L591.272 93.968L591.58 93.0166C587.247 91.6146 584.132 90.3298 582.183 89.1721L581.672 90.032ZM591.272 93.968L590.952 94.9153C595.28 96.3794 598.753 97.7706 601.385 99.0864L601.832 98.192L602.279 97.2976C599.535 95.9254 595.968 94.5006 591.592 93.0207L591.272 93.968ZM601.832 98.192L601.393 99.0906C604 100.364 606.25 102.214 608.146 104.661L608.936 104.048L609.726 103.435C607.654 100.762 605.168 98.7085 602.271 97.2934L601.832 98.192ZM608.936 104.048L608.146 104.661C609.963 107.006 610.912 110.07 610.912 113.936H611.912H612.912C612.912 109.738 611.877 106.21 609.726 103.435L608.936 104.048ZM611.912 113.936H610.912C610.912 117.594 609.97 120.895 608.091 123.865L608.936 124.4L609.781 124.935C611.87 121.633 612.912 117.958 612.912 113.936H611.912ZM608.936 124.4L608.083 123.878C606.273 126.834 603.608 129.21 600.041 130.994L600.488 131.888L600.935 132.782C604.792 130.854 607.759 128.238 609.789 124.922L608.936 124.4ZM600.488 131.888L600.041 130.994C596.495 132.767 592.27 133.672 587.336 133.672V134.672V135.672C592.514 135.672 597.057 134.721 600.935 132.782L600.488 131.888ZM664.831 87.92L663.952 88.3971L664.236 88.92H664.831V87.92ZM659.551 82.832L659.073 83.7108L659.088 83.7189L659.103 83.7264L659.551 82.832ZM638.814 86.288L639.548 86.9674L639.554 86.9607L638.814 86.288ZM639.007 114.8L638.28 115.487L638.286 115.494L638.293 115.5L639.007 114.8ZM663.103 116.912L662.514 116.103L662.505 116.11L663.103 116.912ZM669.247 108.08L670.195 108.396L670.634 107.08H669.247V108.08ZM648.415 108.08H647.415V109.08H648.415V108.08ZM648.415 95.984V94.984H647.415V95.984H648.415ZM684.127 95.984H685.126V94.984H684.127V95.984ZM684.127 111.248L685.085 111.533L685.126 111.393V111.248H684.127ZM677.887 122.672L677.119 122.03L677.113 122.039L677.887 122.672ZM666.847 131.216L666.41 130.316L666.847 131.216ZM633.823 130.16L633.329 131.03L633.335 131.033L633.341 131.037L633.823 130.16ZM621.631 117.968L620.756 118.454L620.761 118.462L621.631 117.968ZM621.631 82.448L620.758 81.9587L620.756 81.9624L621.631 82.448ZM633.823 70.256L634.308 71.1302L634.316 71.1256L633.823 70.256ZM671.935 71.696L671.356 72.5117L671.36 72.5148L671.935 71.696ZM682.975 87.92V88.92H684.267L683.942 87.669L682.975 87.92ZM664.831 87.92L665.709 87.4429C664.395 85.0208 662.483 83.1801 659.998 81.9376L659.551 82.832L659.103 83.7264C661.226 84.7879 662.834 86.3392 663.952 88.3971L664.831 87.92ZM659.551 82.832L660.028 81.9531C657.614 80.6429 654.787 80.008 651.583 80.008V81.008V82.008C654.522 82.008 657.007 82.5891 659.073 83.7108L659.551 82.832ZM651.583 81.008V80.008C646.025 80.008 641.487 81.8613 638.075 85.6153L638.814 86.288L639.554 86.9607C642.542 83.6747 646.516 82.008 651.583 82.008V81.008ZM638.814 86.288L638.081 85.6086C634.671 89.2906 633.015 94.1945 633.015 100.208H634.015H635.015C635.015 94.5735 636.558 90.1973 639.548 86.9674L638.814 86.288ZM634.015 100.208H633.015C633.015 106.597 634.731 111.733 638.28 115.487L639.007 114.8L639.733 114.113C636.626 110.827 635.015 106.235 635.015 100.208H634.015ZM639.007 114.8L638.293 115.5C641.912 119.188 646.832 120.984 652.926 120.984V119.984V118.984C647.245 118.984 642.885 117.324 639.72 114.1L639.007 114.8ZM652.926 119.984V120.984C657.135 120.984 660.746 119.912 663.7 117.714L663.103 116.912L662.505 116.11C659.955 118.008 656.782 118.984 652.926 118.984V119.984ZM663.103 116.912L663.691 117.721C666.701 115.531 668.86 112.401 670.195 108.396L669.247 108.08L668.298 107.764C667.073 111.439 665.136 114.197 662.514 116.103L663.103 116.912ZM669.247 108.08V107.08H648.415V108.08V109.08H669.247V108.08ZM648.415 108.08H649.415V95.984H648.415H647.415V108.08H648.415ZM648.415 95.984V96.984H684.127V95.984V94.984H648.415V95.984ZM684.127 95.984H683.127V111.248H684.127H685.126V95.984H684.127ZM684.127 111.248L683.168 110.963C681.993 114.919 679.982 118.607 677.119 122.03L677.887 122.672L678.654 123.314C681.679 119.697 683.828 115.769 685.085 111.533L684.127 111.248ZM677.887 122.672L677.113 122.039C674.333 125.436 670.772 128.198 666.41 130.316L666.847 131.216L667.283 132.116C671.881 129.882 675.68 126.948 678.66 123.305L677.887 122.672ZM666.847 131.216L666.41 130.316C662.083 132.418 657.179 133.48 651.679 133.48V134.48V135.48C657.442 135.48 662.65 134.366 667.283 132.116L666.847 131.216ZM651.679 134.48V133.48C645.172 133.48 639.388 132.074 634.304 129.283L633.823 130.16L633.341 131.037C638.753 134.006 644.874 135.48 651.679 135.48V134.48ZM633.823 130.16L634.316 129.29C629.289 126.436 625.355 122.501 622.5 117.474L621.631 117.968L620.761 118.462C623.794 123.803 627.988 127.996 633.329 131.03L633.823 130.16ZM621.631 117.968L622.505 117.482C619.717 112.464 618.311 106.715 618.311 100.208H617.311H616.311C616.311 107.013 617.784 113.104 620.756 118.454L621.631 117.968ZM617.311 100.208H618.311C618.311 93.7008 619.717 87.9516 622.505 82.9336L621.631 82.448L620.756 81.9624C617.784 87.3124 616.311 93.4032 616.311 100.208H617.311ZM621.631 82.448L622.503 82.9373C625.357 77.8484 629.289 73.9188 634.308 71.1302L633.823 70.256L633.337 69.3818C627.988 72.3532 623.792 76.5516 620.758 81.9587L621.631 82.448ZM633.823 70.256L634.316 71.1256C639.333 68.2767 645.079 66.84 651.583 66.84V65.84V64.84C644.774 64.84 638.68 66.3473 633.329 69.3864L633.823 70.256ZM651.583 65.84V66.84C659.481 66.84 666.052 68.7495 671.356 72.5116L671.935 71.696L672.513 70.8803C666.809 66.8345 659.812 64.84 651.583 64.84V65.84ZM671.935 71.696L671.36 72.5148C676.723 76.2751 680.271 81.4765 682.007 88.171L682.975 87.92L683.942 87.669C682.094 80.5395 678.282 74.9249 672.509 70.8772L671.935 71.696ZM682.975 87.92V86.92H664.831V87.92V88.92H682.975V87.92Z" fill="#5925DC" mask="url(#path-3-outside-1_207_18)"/>
<path d="M267.32 200.5C267.32 194.32 268.67 188.8 271.37 183.94C274.07 179.02 277.76 175.21 282.44 172.51C287.12 169.75 292.34 168.37 298.1 168.37C305.12 168.37 311.12 170.05 316.1 173.41C321.14 176.71 324.8 181.39 327.08 187.45H319.7C317.9 183.19 315.14 179.86 311.42 177.46C307.76 175.06 303.32 173.86 298.1 173.86C293.48 173.86 289.31 174.94 285.59 177.1C281.93 179.26 279.05 182.38 276.95 186.46C274.85 190.48 273.8 195.16 273.8 200.5C273.8 205.84 274.85 210.52 276.95 214.54C279.05 218.56 281.93 221.65 285.59 223.81C289.31 225.97 293.48 227.05 298.1 227.05C303.32 227.05 307.76 225.88 311.42 223.54C315.14 221.14 317.9 217.84 319.7 213.64H327.08C324.8 219.64 321.14 224.29 316.1 227.59C311.06 230.89 305.06 232.54 298.1 232.54C292.34 232.54 287.12 231.19 282.44 228.49C277.76 225.73 274.07 221.92 271.37 217.06C268.67 212.2 267.32 206.68 267.32 200.5ZM366.094 232.63C360.274 232.63 354.994 231.28 350.254 228.58C345.514 225.82 341.764 222.01 339.004 217.15C336.304 212.23 334.954 206.68 334.954 200.5C334.954 194.32 336.304 188.8 339.004 183.94C341.764 179.02 345.514 175.21 350.254 172.51C354.994 169.75 360.274 168.37 366.094 168.37C371.974 168.37 377.284 169.75 382.024 172.51C386.764 175.21 390.484 179.02 393.184 183.94C395.884 188.8 397.234 194.32 397.234 200.5C397.234 206.68 395.884 212.23 393.184 217.15C390.484 222.01 386.764 225.82 382.024 228.58C377.284 231.28 371.974 232.63 366.094 232.63ZM366.094 227.14C370.774 227.14 374.974 226.06 378.694 223.9C382.414 221.74 385.354 218.65 387.514 214.63C389.674 210.55 390.754 205.84 390.754 200.5C390.754 195.16 389.674 190.48 387.514 186.46C385.354 182.44 382.414 179.35 378.694 177.19C374.974 175.03 370.774 173.95 366.094 173.95C361.414 173.95 357.214 175.03 353.494 177.19C349.774 179.35 346.834 182.44 344.674 186.46C342.514 190.48 341.434 195.16 341.434 200.5C341.434 205.84 342.514 210.55 344.674 214.63C346.834 218.65 349.774 221.74 353.494 223.9C357.214 226.06 361.414 227.14 366.094 227.14ZM440.441 232L424.871 205.72H413.261V232H406.961V169.09H425.861C432.881 169.09 438.191 170.77 441.791 174.13C445.451 177.49 447.281 181.9 447.281 187.36C447.281 191.92 445.961 195.82 443.321 199.06C440.741 202.24 436.901 204.31 431.801 205.27L448.001 232H440.441ZM413.261 200.59H425.951C430.871 200.59 434.561 199.39 437.021 196.99C439.541 194.59 440.801 191.38 440.801 187.36C440.801 183.22 439.601 180.04 437.201 177.82C434.801 175.54 431.021 174.4 425.861 174.4H413.261V200.59ZM464.284 174.22V197.71H488.134V202.93H464.284V226.78H490.834V232H457.984V169H490.834V174.22H464.284Z" fill="#3A3A3C"/>
</svg>
