<svg width="944" height="265" viewBox="0 0 944 265" fill="none" xmlns="http://www.w3.org/2000/svg">
<path d="M94.27 61.78V139H75.46V92.69L58.19 139H43.01L25.63 92.58V139H6.82V61.78H29.04L50.71 115.24L72.16 61.78H94.27ZM115.057 71.24C111.757 71.24 109.043 70.2867 106.917 68.38C104.863 66.4 103.837 63.98 103.837 61.12C103.837 58.1867 104.863 55.7667 106.917 53.86C109.043 51.88 111.757 50.89 115.057 50.89C118.283 50.89 120.923 51.88 122.977 53.86C125.103 55.7667 126.167 58.1867 126.167 61.12C126.167 63.98 125.103 66.4 122.977 68.38C120.923 70.2867 118.283 71.24 115.057 71.24ZM124.407 77.62V139H105.597V77.62H124.407ZM159.158 76.74C163.485 76.74 167.261 77.62 170.488 79.38C173.788 81.14 176.318 83.45 178.078 86.31V77.62H196.888V138.89C196.888 144.537 195.751 149.633 193.478 154.18C191.278 158.8 187.868 162.467 183.248 165.18C178.701 167.893 173.018 169.25 166.198 169.25C157.105 169.25 149.735 167.087 144.088 162.76C138.441 158.507 135.215 152.713 134.408 145.38H152.998C153.585 147.727 154.978 149.56 157.178 150.88C159.378 152.273 162.091 152.97 165.318 152.97C169.205 152.97 172.285 151.833 174.558 149.56C176.905 147.36 178.078 143.803 178.078 138.89V130.2C176.245 133.06 173.715 135.407 170.488 137.24C167.261 139 163.485 139.88 159.158 139.88C154.098 139.88 149.515 138.597 145.408 136.03C141.301 133.39 138.038 129.687 135.618 124.92C133.271 120.08 132.098 114.507 132.098 108.2C132.098 101.893 133.271 96.3567 135.618 91.59C138.038 86.8233 141.301 83.1567 145.408 80.59C149.515 78.0233 154.098 76.74 159.158 76.74ZM178.078 108.31C178.078 103.617 176.758 99.9133 174.118 97.2C171.551 94.4867 168.398 93.13 164.658 93.13C160.918 93.13 157.728 94.4867 155.088 97.2C152.521 99.84 151.238 103.507 151.238 108.2C151.238 112.893 152.521 116.633 155.088 119.42C157.728 122.133 160.918 123.49 164.658 123.49C168.398 123.49 171.551 122.133 174.118 119.42C176.758 116.707 178.078 113.003 178.078 108.31ZM227.106 87.85C229.306 84.4767 232.056 81.8367 235.356 79.93C238.656 77.95 242.323 76.96 246.356 76.96V96.87H241.186C236.493 96.87 232.973 97.8967 230.626 99.95C228.28 101.93 227.106 105.45 227.106 110.51V139H208.296V77.62H227.106V87.85ZM249.407 108.2C249.407 101.893 250.58 96.3567 252.927 91.59C255.347 86.8233 258.61 83.1567 262.717 80.59C266.824 78.0233 271.407 76.74 276.467 76.74C280.794 76.74 284.57 77.62 287.797 79.38C291.097 81.14 293.627 83.45 295.387 86.31V77.62H314.197V139H295.387V130.31C293.554 133.17 290.987 135.48 287.687 137.24C284.46 139 280.684 139.88 276.357 139.88C271.37 139.88 266.824 138.597 262.717 136.03C258.61 133.39 255.347 129.687 252.927 124.92C250.58 120.08 249.407 114.507 249.407 108.2ZM295.387 108.31C295.387 103.617 294.067 99.9133 291.427 97.2C288.86 94.4867 285.707 93.13 281.967 93.13C278.227 93.13 275.037 94.4867 272.397 97.2C269.83 99.84 268.547 103.507 268.547 108.2C268.547 112.893 269.83 116.633 272.397 119.42C275.037 122.133 278.227 123.49 281.967 123.49C285.707 123.49 288.86 122.133 291.427 119.42C294.067 116.707 295.387 113.003 295.387 108.31ZM363.005 76.96C370.192 76.96 375.912 79.3067 380.165 84C384.492 88.62 386.655 95 386.655 103.14V139H367.955V105.67C367.955 101.563 366.892 98.3733 364.765 96.1C362.638 93.8267 359.778 92.69 356.185 92.69C352.592 92.69 349.732 93.8267 347.605 96.1C345.478 98.3733 344.415 101.563 344.415 105.67V139H325.605V77.62H344.415V85.76C346.322 83.0467 348.888 80.92 352.115 79.38C355.342 77.7667 358.972 76.96 363.005 76.96ZM431.736 123.05V139H422.166C415.346 139 410.03 137.35 406.216 134.05C402.403 130.677 400.496 125.213 400.496 117.66V93.24H393.016V77.62H400.496V62.66H419.306V77.62H431.626V93.24H419.306V117.88C419.306 119.713 419.746 121.033 420.626 121.84C421.506 122.647 422.973 123.05 425.026 123.05H431.736ZM498.864 86.64C498.864 91.1133 497.837 95.22 495.784 98.96C493.73 102.627 490.577 105.597 486.324 107.87C482.07 110.143 476.79 111.28 470.484 111.28H458.824V139H440.014V61.78H470.484C476.644 61.78 481.85 62.8433 486.104 64.97C490.357 67.0967 493.547 70.03 495.674 73.77C497.8 77.51 498.864 81.8 498.864 86.64ZM469.054 96.32C472.647 96.32 475.324 95.4767 477.084 93.79C478.844 92.1033 479.724 89.72 479.724 86.64C479.724 83.56 478.844 81.1767 477.084 79.49C475.324 77.8033 472.647 76.96 469.054 76.96H458.824V96.32H469.054ZM567.066 77.62V139H548.256V130.64C546.35 133.353 543.746 135.553 540.446 137.24C537.22 138.853 533.626 139.66 529.666 139.66C524.973 139.66 520.83 138.633 517.236 136.58C513.643 134.453 510.856 131.41 508.876 127.45C506.896 123.49 505.906 118.833 505.906 113.48V77.62H524.606V110.95C524.606 115.057 525.67 118.247 527.796 120.52C529.923 122.793 532.783 123.93 536.376 123.93C540.043 123.93 542.94 122.793 545.066 120.52C547.193 118.247 548.256 115.057 548.256 110.95V77.62H567.066ZM597.187 57.6V139H578.377V57.6H597.187ZM633.589 139.88C628.235 139.88 623.469 138.963 619.289 137.13C615.109 135.297 611.809 132.803 609.389 129.65C606.969 126.423 605.612 122.83 605.319 118.87H623.909C624.129 120.997 625.119 122.72 626.879 124.04C628.639 125.36 630.802 126.02 633.369 126.02C635.715 126.02 637.512 125.58 638.759 124.7C640.079 123.747 640.739 122.537 640.739 121.07C640.739 119.31 639.822 118.027 637.989 117.22C636.155 116.34 633.185 115.387 629.079 114.36C624.679 113.333 621.012 112.27 618.079 111.17C615.145 109.997 612.615 108.2 610.489 105.78C608.362 103.287 607.299 99.95 607.299 95.77C607.299 92.25 608.252 89.06 610.159 86.2C612.139 83.2667 614.999 80.9567 618.739 79.27C622.552 77.5833 627.062 76.74 632.269 76.74C639.969 76.74 646.019 78.6467 650.419 82.46C654.892 86.2733 657.459 91.3333 658.119 97.64H640.739C640.445 95.5133 639.492 93.8267 637.879 92.58C636.339 91.3333 634.285 90.71 631.719 90.71C629.519 90.71 627.832 91.15 626.659 92.03C625.485 92.8367 624.899 93.9733 624.899 95.44C624.899 97.2 625.815 98.52 627.649 99.4C629.555 100.28 632.489 101.16 636.449 102.04C640.995 103.213 644.699 104.387 647.559 105.56C650.419 106.66 652.912 108.493 655.039 111.06C657.239 113.553 658.375 116.927 658.449 121.18C658.449 124.773 657.422 128 655.369 130.86C653.389 133.647 650.492 135.847 646.679 137.46C642.939 139.073 638.575 139.88 633.589 139.88ZM725.617 107.32C725.617 109.08 725.507 110.913 725.287 112.82H682.717C683.01 116.633 684.22 119.567 686.347 121.62C688.547 123.6 691.223 124.59 694.377 124.59C699.07 124.59 702.333 122.61 704.167 118.65H724.187C723.16 122.683 721.29 126.313 718.577 129.54C715.937 132.767 712.6 135.297 708.567 137.13C704.533 138.963 700.023 139.88 695.037 139.88C689.023 139.88 683.67 138.597 678.977 136.03C674.283 133.463 670.617 129.797 667.977 125.03C665.337 120.263 664.017 114.69 664.017 108.31C664.017 101.93 665.3 96.3567 667.867 91.59C670.507 86.8233 674.173 83.1567 678.867 80.59C683.56 78.0233 688.95 76.74 695.037 76.74C700.977 76.74 706.257 77.9867 710.877 80.48C715.497 82.9733 719.09 86.53 721.657 91.15C724.297 95.77 725.617 101.16 725.617 107.32ZM706.367 102.37C706.367 99.1433 705.267 96.5767 703.067 94.67C700.867 92.7633 698.117 91.81 694.817 91.81C691.663 91.81 688.987 92.7267 686.787 94.56C684.66 96.3933 683.34 98.9967 682.827 102.37H706.367Z" fill="#3A3A3C"/>
<circle cx="844" cy="100" r="92.5" stroke="#5925DC" stroke-width="15"/>
<mask id="path-3-outside-1_230_12" maskUnits="userSpaceOnUse" x="781" y="64" width="126" height="72" fill="black">
<rect fill="white" x="781" y="64" width="126" height="72"/>
<path d="M808.336 134.672C803.408 134.672 798.992 133.872 795.088 132.272C791.184 130.672 788.048 128.304 785.68 125.168C783.376 122.032 782.16 118.256 782.032 113.84H799.504C799.76 116.336 800.624 118.256 802.096 119.6C803.568 120.88 805.488 121.52 807.856 121.52C810.288 121.52 812.208 120.976 813.616 119.888C815.024 118.736 815.728 117.168 815.728 115.184C815.728 113.52 815.152 112.144 814 111.056C812.912 109.968 811.536 109.072 809.872 108.368C808.272 107.664 805.968 106.864 802.96 105.968C798.608 104.624 795.056 103.28 792.304 101.936C789.552 100.592 787.184 98.608 785.2 95.984C783.216 93.36 782.224 89.936 782.224 85.712C782.224 79.44 784.496 74.544 789.04 71.024C793.584 67.44 799.504 65.648 806.8 65.648C814.224 65.648 820.208 67.44 824.752 71.024C829.296 74.544 831.728 79.472 832.048 85.808H814.288C814.16 83.632 813.36 81.936 811.888 80.72C810.416 79.44 808.528 78.8 806.224 78.8C804.24 78.8 802.64 79.344 801.424 80.432C800.208 81.456 799.6 82.96 799.6 84.944C799.6 87.12 800.624 88.816 802.672 90.032C804.72 91.248 807.92 92.56 812.272 93.968C816.624 95.44 820.144 96.848 822.832 98.192C825.584 99.536 827.952 101.488 829.936 104.048C831.92 106.608 832.912 109.904 832.912 113.936C832.912 117.776 831.92 121.264 829.936 124.4C828.016 127.536 825.2 130.032 821.488 131.888C817.776 133.744 813.392 134.672 808.336 134.672ZM885.831 87.92C884.615 85.68 882.855 83.984 880.551 82.832C878.311 81.616 875.655 81.008 872.583 81.008C867.271 81.008 863.015 82.768 859.815 86.288C856.615 89.744 855.015 94.384 855.015 100.208C855.015 106.416 856.679 111.28 860.007 114.8C863.399 118.256 868.039 119.984 873.927 119.984C877.959 119.984 881.351 118.96 884.103 116.912C886.919 114.864 888.967 111.92 890.247 108.08H869.415V95.984H905.127V111.248C903.911 115.344 901.831 119.152 898.887 122.672C896.007 126.192 892.327 129.04 887.847 131.216C883.367 133.392 878.311 134.48 872.679 134.48C866.023 134.48 860.071 133.04 854.823 130.16C849.639 127.216 845.575 123.152 842.631 117.968C839.751 112.784 838.311 106.864 838.311 100.208C838.311 93.552 839.751 87.632 842.631 82.448C845.575 77.2 849.639 73.136 854.823 70.256C860.007 67.312 865.927 65.84 872.583 65.84C880.647 65.84 887.431 67.792 892.935 71.696C898.503 75.6 902.183 81.008 903.975 87.92H885.831Z"/>
</mask>
<path d="M808.336 134.672C803.408 134.672 798.992 133.872 795.088 132.272C791.184 130.672 788.048 128.304 785.68 125.168C783.376 122.032 782.16 118.256 782.032 113.84H799.504C799.76 116.336 800.624 118.256 802.096 119.6C803.568 120.88 805.488 121.52 807.856 121.52C810.288 121.52 812.208 120.976 813.616 119.888C815.024 118.736 815.728 117.168 815.728 115.184C815.728 113.52 815.152 112.144 814 111.056C812.912 109.968 811.536 109.072 809.872 108.368C808.272 107.664 805.968 106.864 802.96 105.968C798.608 104.624 795.056 103.28 792.304 101.936C789.552 100.592 787.184 98.608 785.2 95.984C783.216 93.36 782.224 89.936 782.224 85.712C782.224 79.44 784.496 74.544 789.04 71.024C793.584 67.44 799.504 65.648 806.8 65.648C814.224 65.648 820.208 67.44 824.752 71.024C829.296 74.544 831.728 79.472 832.048 85.808H814.288C814.16 83.632 813.36 81.936 811.888 80.72C810.416 79.44 808.528 78.8 806.224 78.8C804.24 78.8 802.64 79.344 801.424 80.432C800.208 81.456 799.6 82.96 799.6 84.944C799.6 87.12 800.624 88.816 802.672 90.032C804.72 91.248 807.92 92.56 812.272 93.968C816.624 95.44 820.144 96.848 822.832 98.192C825.584 99.536 827.952 101.488 829.936 104.048C831.92 106.608 832.912 109.904 832.912 113.936C832.912 117.776 831.92 121.264 829.936 124.4C828.016 127.536 825.2 130.032 821.488 131.888C817.776 133.744 813.392 134.672 808.336 134.672ZM885.831 87.92C884.615 85.68 882.855 83.984 880.551 82.832C878.311 81.616 875.655 81.008 872.583 81.008C867.271 81.008 863.015 82.768 859.815 86.288C856.615 89.744 855.015 94.384 855.015 100.208C855.015 106.416 856.679 111.28 860.007 114.8C863.399 118.256 868.039 119.984 873.927 119.984C877.959 119.984 881.351 118.96 884.103 116.912C886.919 114.864 888.967 111.92 890.247 108.08H869.415V95.984H905.127V111.248C903.911 115.344 901.831 119.152 898.887 122.672C896.007 126.192 892.327 129.04 887.847 131.216C883.367 133.392 878.311 134.48 872.679 134.48C866.023 134.48 860.071 133.04 854.823 130.16C849.639 127.216 845.575 123.152 842.631 117.968C839.751 112.784 838.311 106.864 838.311 100.208C838.311 93.552 839.751 87.632 842.631 82.448C845.575 77.2 849.639 73.136 854.823 70.256C860.007 67.312 865.927 65.84 872.583 65.84C880.647 65.84 887.431 67.792 892.935 71.696C898.503 75.6 902.183 81.008 903.975 87.92H885.831Z" fill="#5925DC"/>
<path d="M795.088 132.272L794.709 133.197V133.197L795.088 132.272ZM785.68 125.168L784.874 125.76L784.882 125.771L785.68 125.168ZM782.032 113.84V112.84H781.003L781.032 113.869L782.032 113.84ZM799.504 113.84L800.499 113.738L800.407 112.84H799.504V113.84ZM802.096 119.6L801.422 120.338L801.431 120.347L801.44 120.355L802.096 119.6ZM813.616 119.888L814.227 120.679L814.238 120.671L814.249 120.662L813.616 119.888ZM814 111.056L813.293 111.763L813.303 111.773L813.313 111.783L814 111.056ZM809.872 108.368L809.469 109.283L809.476 109.286L809.482 109.289L809.872 108.368ZM802.96 105.968L802.665 106.924L802.675 106.926L802.96 105.968ZM785.2 95.984L785.998 95.3809V95.3809L785.2 95.984ZM789.04 71.024L789.652 71.8146L789.659 71.8092L789.04 71.024ZM824.752 71.024L824.133 71.8092L824.14 71.8145L824.752 71.024ZM832.048 85.808V86.808H833.1L833.047 85.7576L832.048 85.808ZM814.288 85.808L813.29 85.8667L813.345 86.808H814.288V85.808ZM811.888 80.72L811.232 81.4746L811.241 81.4829L811.251 81.491L811.888 80.72ZM801.424 80.432L802.068 81.1969L802.08 81.1872L802.091 81.1772L801.424 80.432ZM802.672 90.032L803.183 89.1721V89.1721L802.672 90.032ZM812.272 93.968L812.592 93.0206L812.58 93.0166L812.272 93.968ZM822.832 98.192L822.385 99.0865L822.393 99.0906L822.832 98.192ZM829.936 104.048L829.146 104.661V104.661L829.936 104.048ZM829.936 124.4L829.091 123.865L829.087 123.872L829.083 123.878L829.936 124.4ZM821.488 131.888L821.041 130.994V130.994L821.488 131.888ZM808.336 134.672V133.672C803.517 133.672 799.232 132.89 795.467 131.347L795.088 132.272L794.709 133.197C798.752 134.854 803.299 135.672 808.336 135.672V134.672ZM795.088 132.272L795.467 131.347C791.717 129.81 788.73 127.548 786.478 124.565L785.68 125.168L784.882 125.771C787.366 129.06 790.651 131.534 794.709 133.197L795.088 132.272ZM785.68 125.168L786.486 124.576C784.318 121.625 783.155 118.052 783.032 113.811L782.032 113.84L781.032 113.869C781.165 118.46 782.434 122.439 784.874 125.76L785.68 125.168ZM782.032 113.84V114.84H799.504V113.84V112.84H782.032V113.84ZM799.504 113.84L798.509 113.942C798.784 116.617 799.725 118.789 801.422 120.338L802.096 119.6L802.77 118.862C801.523 117.723 800.736 116.055 800.499 113.738L799.504 113.84ZM802.096 119.6L801.44 120.355C803.131 121.825 805.301 122.52 807.856 122.52V121.52V120.52C805.675 120.52 804.005 119.935 802.752 118.845L802.096 119.6ZM807.856 121.52V122.52C810.429 122.52 812.59 121.945 814.227 120.679L813.616 119.888L813.005 119.097C811.826 120.007 810.147 120.52 807.856 120.52V121.52ZM813.616 119.888L814.249 120.662C815.912 119.301 816.728 117.437 816.728 115.184H815.728H814.728C814.728 116.899 814.136 118.171 812.983 119.114L813.616 119.888ZM815.728 115.184H816.728C816.728 113.26 816.05 111.616 814.687 110.329L814 111.056L813.313 111.783C814.254 112.672 814.728 113.78 814.728 115.184H815.728ZM814 111.056L814.707 110.349C813.514 109.155 812.024 108.193 810.262 107.447L809.872 108.368L809.482 109.289C811.048 109.951 812.31 110.781 813.293 111.763L814 111.056ZM809.872 108.368L810.275 107.453C808.618 106.724 806.267 105.91 803.245 105.01L802.96 105.968L802.675 106.926C805.669 107.818 807.926 108.604 809.469 109.283L809.872 108.368ZM802.96 105.968L803.255 105.013C798.931 103.677 795.432 102.351 792.743 101.037L792.304 101.936L791.865 102.835C794.68 104.209 798.285 105.571 802.665 106.923L802.96 105.968ZM792.304 101.936L792.743 101.037C790.142 99.7674 787.894 97.8891 785.998 95.3809L785.2 95.984L784.402 96.5871C786.474 99.3269 788.962 101.417 791.865 102.835L792.304 101.936ZM785.2 95.984L785.998 95.3809C784.178 92.9744 783.224 89.7806 783.224 85.712H782.224H781.224C781.224 90.0914 782.254 93.7456 784.402 96.5871L785.2 95.984ZM782.224 85.712H783.224C783.224 79.7168 785.377 75.1261 789.652 71.8145L789.04 71.024L788.428 70.2334C783.615 73.9619 781.224 79.1632 781.224 85.712H782.224ZM789.04 71.024L789.659 71.8092C793.985 68.3972 799.669 66.648 806.8 66.648V65.648V64.648C799.339 64.648 793.183 66.4828 788.421 70.2388L789.04 71.024ZM806.8 65.648V66.648C814.064 66.648 819.81 68.3995 824.133 71.8092L824.752 71.024L825.371 70.2388C820.606 66.4805 814.384 64.648 806.8 64.648V65.648ZM824.752 71.024L824.14 71.8145C828.427 75.1361 830.742 79.7797 831.049 85.8584L832.048 85.808L833.047 85.7576C832.714 79.1643 830.165 73.9519 825.364 70.2334L824.752 71.024ZM832.048 85.808V84.808H814.288V85.808V86.808H832.048V85.808ZM814.288 85.808L815.286 85.7493C815.145 83.3392 814.242 81.3677 812.525 79.949L811.888 80.72L811.251 81.491C812.478 82.5043 813.175 83.9248 813.29 85.8667L814.288 85.808ZM811.888 80.72L812.544 79.9654C810.858 78.4994 808.723 77.8 806.224 77.8V78.8V79.8C808.333 79.8 809.974 80.3806 811.232 81.4746L811.888 80.72ZM806.224 78.8V77.8C804.05 77.8 802.194 78.401 800.757 79.6868L801.424 80.432L802.091 81.1772C803.086 80.287 804.43 79.8 806.224 79.8V78.8ZM801.424 80.432L800.78 79.6671C799.284 80.927 798.6 82.7446 798.6 84.944H799.6H800.6C800.6 83.1754 801.132 81.985 802.068 81.1969L801.424 80.432ZM799.6 84.944H798.6C798.6 87.5114 799.845 89.5163 802.161 90.8919L802.672 90.032L803.183 89.1721C801.403 88.1157 800.6 86.7286 800.6 84.944H799.6ZM802.672 90.032L802.161 90.8918C804.308 92.1662 807.594 93.5054 811.964 94.9194L812.272 93.968L812.58 93.0166C808.247 91.6146 805.132 90.3298 803.183 89.1721L802.672 90.032ZM812.272 93.968L811.952 94.9153C816.28 96.3794 819.753 97.7706 822.385 99.0864L822.832 98.192L823.279 97.2976C820.535 95.9254 816.968 94.5006 812.592 93.0207L812.272 93.968ZM822.832 98.192L822.393 99.0906C825 100.364 827.25 102.214 829.146 104.661L829.936 104.048L830.726 103.435C828.654 100.762 826.168 98.7085 823.271 97.2934L822.832 98.192ZM829.936 104.048L829.146 104.661C830.963 107.006 831.912 110.07 831.912 113.936H832.912H833.912C833.912 109.738 832.877 106.21 830.726 103.435L829.936 104.048ZM832.912 113.936H831.912C831.912 117.594 830.97 120.895 829.091 123.865L829.936 124.4L830.781 124.935C832.87 121.633 833.912 117.958 833.912 113.936H832.912ZM829.936 124.4L829.083 123.878C827.273 126.834 824.608 129.21 821.041 130.994L821.488 131.888L821.935 132.782C825.792 130.854 828.759 128.238 830.789 124.922L829.936 124.4ZM821.488 131.888L821.041 130.994C817.495 132.767 813.27 133.672 808.336 133.672V134.672V135.672C813.514 135.672 818.057 134.721 821.935 132.782L821.488 131.888ZM885.831 87.92L884.952 88.3971L885.236 88.92H885.831V87.92ZM880.551 82.832L880.073 83.7108L880.088 83.7189L880.103 83.7264L880.551 82.832ZM859.814 86.288L860.548 86.9674L860.554 86.9607L859.814 86.288ZM860.007 114.8L859.28 115.487L859.286 115.494L859.293 115.5L860.007 114.8ZM884.103 116.912L883.514 116.103L883.505 116.11L884.103 116.912ZM890.247 108.08L891.195 108.396L891.634 107.08H890.247V108.08ZM869.415 108.08H868.415V109.08H869.415V108.08ZM869.415 95.984V94.984H868.415V95.984H869.415ZM905.127 95.984H906.126V94.984H905.127V95.984ZM905.127 111.248L906.085 111.533L906.126 111.393V111.248H905.127ZM898.887 122.672L898.119 122.03L898.113 122.039L898.887 122.672ZM887.847 131.216L887.41 130.316L887.847 131.216ZM854.823 130.16L854.329 131.03L854.335 131.033L854.341 131.037L854.823 130.16ZM842.631 117.968L841.756 118.454L841.761 118.462L842.631 117.968ZM842.631 82.448L841.758 81.9587L841.756 81.9624L842.631 82.448ZM854.823 70.256L855.308 71.1302L855.316 71.1256L854.823 70.256ZM892.935 71.696L892.356 72.5117L892.36 72.5148L892.935 71.696ZM903.975 87.92V88.92H905.267L904.942 87.669L903.975 87.92ZM885.831 87.92L886.709 87.4429C885.395 85.0208 883.483 83.1801 880.998 81.9376L880.551 82.832L880.103 83.7264C882.226 84.7879 883.834 86.3392 884.952 88.3971L885.831 87.92ZM880.551 82.832L881.028 81.9531C878.614 80.6429 875.787 80.008 872.583 80.008V81.008V82.008C875.522 82.008 878.007 82.5891 880.073 83.7108L880.551 82.832ZM872.583 81.008V80.008C867.025 80.008 862.487 81.8613 859.075 85.6153L859.814 86.288L860.554 86.9607C863.542 83.6747 867.516 82.008 872.583 82.008V81.008ZM859.814 86.288L859.081 85.6086C855.671 89.2906 854.015 94.1945 854.015 100.208H855.015H856.015C856.015 94.5735 857.558 90.1973 860.548 86.9674L859.814 86.288ZM855.015 100.208H854.015C854.015 106.597 855.731 111.733 859.28 115.487L860.007 114.8L860.733 114.113C857.626 110.827 856.015 106.235 856.015 100.208H855.015ZM860.007 114.8L859.293 115.5C862.912 119.188 867.832 120.984 873.926 120.984V119.984V118.984C868.245 118.984 863.885 117.324 860.72 114.1L860.007 114.8ZM873.926 119.984V120.984C878.135 120.984 881.746 119.912 884.7 117.714L884.103 116.912L883.505 116.11C880.955 118.008 877.782 118.984 873.926 118.984V119.984ZM884.103 116.912L884.691 117.721C887.701 115.531 889.86 112.401 891.195 108.396L890.247 108.08L889.298 107.764C888.073 111.439 886.136 114.197 883.514 116.103L884.103 116.912ZM890.247 108.08V107.08H869.415V108.08V109.08H890.247V108.08ZM869.415 108.08H870.415V95.984H869.415H868.415V108.08H869.415ZM869.415 95.984V96.984H905.127V95.984V94.984H869.415V95.984ZM905.127 95.984H904.127V111.248H905.127H906.126V95.984H905.127ZM905.127 111.248L904.168 110.963C902.993 114.919 900.982 118.607 898.119 122.03L898.887 122.672L899.654 123.314C902.679 119.697 904.828 115.769 906.085 111.533L905.127 111.248ZM898.887 122.672L898.113 122.039C895.333 125.436 891.772 128.198 887.41 130.316L887.847 131.216L888.283 132.116C892.881 129.882 896.68 126.948 899.66 123.305L898.887 122.672ZM887.847 131.216L887.41 130.316C883.083 132.418 878.179 133.48 872.679 133.48V134.48V135.48C878.442 135.48 883.65 134.366 888.283 132.116L887.847 131.216ZM872.679 134.48V133.48C866.172 133.48 860.388 132.074 855.304 129.283L854.823 130.16L854.341 131.037C859.753 134.006 865.874 135.48 872.679 135.48V134.48ZM854.823 130.16L855.316 129.29C850.289 126.436 846.355 122.501 843.5 117.474L842.631 117.968L841.761 118.462C844.794 123.803 848.988 127.996 854.329 131.03L854.823 130.16ZM842.631 117.968L843.505 117.482C840.717 112.464 839.311 106.715 839.311 100.208H838.311H837.311C837.311 107.013 838.784 113.104 841.756 118.454L842.631 117.968ZM838.311 100.208H839.311C839.311 93.7008 840.717 87.9516 843.505 82.9336L842.631 82.448L841.756 81.9624C838.784 87.3124 837.311 93.4032 837.311 100.208H838.311ZM842.631 82.448L843.503 82.9373C846.357 77.8484 850.289 73.9188 855.308 71.1302L854.823 70.256L854.337 69.3818C848.988 72.3532 844.792 76.5516 841.758 81.9587L842.631 82.448ZM854.823 70.256L855.316 71.1256C860.333 68.2767 866.079 66.84 872.583 66.84V65.84V64.84C865.774 64.84 859.68 66.3473 854.329 69.3864L854.823 70.256ZM872.583 65.84V66.84C880.481 66.84 887.052 68.7495 892.356 72.5116L892.935 71.696L893.513 70.8803C887.809 66.8345 880.812 64.84 872.583 64.84V65.84ZM892.935 71.696L892.36 72.5148C897.723 76.2751 901.271 81.4765 903.007 88.171L903.975 87.92L904.942 87.669C903.094 80.5395 899.282 74.9249 893.509 70.8772L892.935 71.696ZM903.975 87.92V86.92H885.831V87.92V88.92H903.975V87.92Z" fill="#5925DC" mask="url(#path-3-outside-1_230_12)"/>
<path d="M499.32 197.5C499.32 191.32 500.67 185.8 503.37 180.94C506.07 176.02 509.76 172.21 514.44 169.51C519.12 166.75 524.34 165.37 530.1 165.37C537.12 165.37 543.12 167.05 548.1 170.41C553.14 173.71 556.8 178.39 559.08 184.45H551.7C549.9 180.19 547.14 176.86 543.42 174.46C539.76 172.06 535.32 170.86 530.1 170.86C525.48 170.86 521.31 171.94 517.59 174.1C513.93 176.26 511.05 179.38 508.95 183.46C506.85 187.48 505.8 192.16 505.8 197.5C505.8 202.84 506.85 207.52 508.95 211.54C511.05 215.56 513.93 218.65 517.59 220.81C521.31 222.97 525.48 224.05 530.1 224.05C535.32 224.05 539.76 222.88 543.42 220.54C547.14 218.14 549.9 214.84 551.7 210.64H559.08C556.8 216.64 553.14 221.29 548.1 224.59C543.06 227.89 537.06 229.54 530.1 229.54C524.34 229.54 519.12 228.19 514.44 225.49C509.76 222.73 506.07 218.92 503.37 214.06C500.67 209.2 499.32 203.68 499.32 197.5ZM598.094 229.63C592.274 229.63 586.994 228.28 582.254 225.58C577.514 222.82 573.764 219.01 571.004 214.15C568.304 209.23 566.954 203.68 566.954 197.5C566.954 191.32 568.304 185.8 571.004 180.94C573.764 176.02 577.514 172.21 582.254 169.51C586.994 166.75 592.274 165.37 598.094 165.37C603.974 165.37 609.284 166.75 614.024 169.51C618.764 172.21 622.484 176.02 625.184 180.94C627.884 185.8 629.234 191.32 629.234 197.5C629.234 203.68 627.884 209.23 625.184 214.15C622.484 219.01 618.764 222.82 614.024 225.58C609.284 228.28 603.974 229.63 598.094 229.63ZM598.094 224.14C602.774 224.14 606.974 223.06 610.694 220.9C614.414 218.74 617.354 215.65 619.514 211.63C621.674 207.55 622.754 202.84 622.754 197.5C622.754 192.16 621.674 187.48 619.514 183.46C617.354 179.44 614.414 176.35 610.694 174.19C606.974 172.03 602.774 170.95 598.094 170.95C593.414 170.95 589.214 172.03 585.494 174.19C581.774 176.35 578.834 179.44 576.674 183.46C574.514 187.48 573.434 192.16 573.434 197.5C573.434 202.84 574.514 207.55 576.674 211.63C578.834 215.65 581.774 218.74 585.494 220.9C589.214 223.06 593.414 224.14 598.094 224.14ZM672.441 229L656.871 202.72H645.261V229H638.961V166.09H657.861C664.881 166.09 670.191 167.77 673.791 171.13C677.451 174.49 679.281 178.9 679.281 184.36C679.281 188.92 677.961 192.82 675.321 196.06C672.741 199.24 668.901 201.31 663.801 202.27L680.001 229H672.441ZM645.261 197.59H657.951C662.871 197.59 666.561 196.39 669.021 193.99C671.541 191.59 672.801 188.38 672.801 184.36C672.801 180.22 671.601 177.04 669.201 174.82C666.801 172.54 663.021 171.4 657.861 171.4H645.261V197.59ZM696.284 171.22V194.71H720.134V199.93H696.284V223.78H722.834V229H689.984V166H722.834V171.22H696.284Z" fill="#3A3A3C"/>
</svg>
